# Blender 3.4.1
# www.blender.org
mtllib CreatureRedBird.mtl
o Cube
v 1.000000 -0.497037 0.904724
v 1.000000 -0.497037 0.034719
v -1.000000 -0.265556 0.904724
v -1.000000 -0.265556 0.412550
v 1.000000 0.497037 0.904724
v 1.000000 0.497037 0.034719
v -1.000000 0.265556 0.904724
v -1.000000 0.265556 0.412550
vn -0.0000 -0.0000 1.0000
vn -1.0000 -0.0000 -0.0000
vn -0.1150 0.9934 -0.0000
vn -0.1856 -0.0000 -0.9826
vn -0.1150 -0.9934 -0.0000
vn 1.0000 -0.0000 -0.0000
vt 0.277170 0.500000
vt 0.156164 0.500000
vt 0.277170 0.750000
vt 0.156164 0.750000
vt 0.398176 0.500000
vt 0.277170 0.250000
vt 0.035158 0.500000
vt 0.156164 0.250000
vt 0.398176 0.750000
vt 0.277170 1.000000
vt 0.277170 0.000000
vt 0.156164 1.000000
vt 0.156164 0.000000
vt 0.035158 0.750000
s 0
usemtl Material
f 5/5/1 3/3/1 1/1/1
f 3/3/2 8/12/2 4/4/2
f 8/13/3 5/6/3 6/8/3
f 2/2/4 8/14/4 6/7/4
f 1/1/5 4/4/5 2/2/5
f 5/6/6 2/2/6 6/8/6
f 5/5/1 7/9/1 3/3/1
f 3/3/2 7/10/2 8/12/2
f 8/13/3 7/11/3 5/6/3
f 2/2/4 4/4/4 8/14/4
f 1/1/5 3/3/5 4/4/5
f 5/6/6 1/1/6 2/2/6
o Cube.001
v -1.785857 0.292522 0.754052
v -1.785857 0.292522 1.215275
v -0.813501 0.292522 0.754052
v -0.813501 0.292522 1.215275
v -1.785857 -0.300922 0.754052
v -1.785857 -0.300922 1.215275
v -0.813501 -0.300922 0.754052
v -0.813501 -0.300922 1.215275
vn -0.0000 1.0000 -0.0000
vn 1.0000 -0.0000 -0.0000
vn -0.0000 -1.0000 -0.0000
vn -1.0000 -0.0000 -0.0000
vn -0.0000 -0.0000 -1.0000
vn -0.0000 -0.0000 1.0000
vt 0.135417 0.000000
vt 0.139583 1.000000
vt 0.070359 0.750000
vt 0.385417 0.000000
vt 0.389583 1.000000
vt 0.462974 0.750000
vt 0.201231 0.250000
vt 0.070359 0.500000
vt 0.135417 0.250000
vt 0.385417 0.250000
vt 0.332102 0.250000
vt 0.462974 0.500000
vt 0.139583 0.750000
vt 0.201231 0.750000
vt 0.389583 0.750000
vt 0.332102 0.750000
vt 0.201231 0.500000
vt 0.332102 0.500000
s 0
usemtl Material
f 10/18/7 11/23/7 9/15/7
f 12/25/8 15/31/8 11/21/8
f 16/32/9 13/28/9 15/31/9
f 14/29/10 9/16/10 13/27/10
f 15/31/11 9/17/11 11/22/11
f 12/26/12 14/30/12 16/32/12
f 10/18/7 12/24/7 11/23/7
f 12/25/8 16/32/8 15/31/8
f 16/32/9 14/30/9 13/28/9
f 14/29/10 10/19/10 9/16/10
f 15/31/11 13/28/11 9/17/11
f 12/26/12 10/20/12 14/30/12
o Cube.002
v -1.757377 -0.148595 0.789832
v -2.208858 -0.045251 0.863235
v -1.757377 0.166051 0.789832
v -2.208858 0.062707 0.863235
v -1.757377 -0.148595 1.013319
v -2.208858 -0.045251 0.939916
v -1.757377 0.166051 1.013319
v -2.208858 0.062707 0.939916
vn -0.1605 -0.0000 -0.9870
vn -0.2231 0.9748 -0.0000
vn -0.1605 -0.0000 0.9870
vn -0.2231 -0.9748 -0.0000
vn 1.0000 -0.0000 -0.0000
vn -1.0000 -0.0000 -0.0000
vt 0.652803 0.000000
vt 0.652803 1.000000
vt 0.508408 0.750000
vt 0.797197 0.000000
vt 0.797197 1.000000
vt 0.941592 0.750000
vt 0.508408 0.500000
vt 0.652803 0.250000
vt 0.797197 0.250000
vt 0.941592 0.500000
vt 0.652803 0.750000
vt 0.797197 0.750000
vt 0.652803 0.500000
vt 0.797197 0.500000
s 0
usemtl Material
f 18/36/13 19/40/13 17/33/13
f 20/41/14 23/45/14 19/40/14
f 24/46/15 21/43/15 23/45/15
f 22/44/16 17/34/16 21/43/16
f 23/45/17 17/35/17 19/39/17
f 20/42/18 22/44/18 24/46/18
f 18/36/13 20/41/13 19/40/13
f 20/41/14 24/46/14 23/45/14
f 24/46/15 22/44/15 21/43/15
f 22/44/16 18/37/16 17/34/16
f 23/45/17 21/43/17 17/35/17
f 20/42/18 18/38/18 22/44/18
o Cube.003
v -0.232035 1.556539 1.289509
v -0.232035 1.517678 1.360914
v 0.185269 1.556539 1.289509
v 0.185269 1.517678 1.360914
v -0.402130 0.319173 0.578359
v -0.402130 0.248632 0.707973
v 0.355364 0.319173 0.578359
v 0.355364 0.248632 0.707973
vn -0.0000 0.8783 0.4780
vn 0.9930 0.1040 0.0566
vn -0.0000 -0.8783 -0.4780
vn -0.9930 0.1040 0.0566
vn -0.0000 0.4983 -0.8670
vn -0.0000 -0.4575 0.8892
vt 0.170686 0.000000
vt 0.170686 1.000000
vt 0.020391 0.750000
vt 0.320981 0.000000
vt 0.320981 1.000000
vt 0.471276 0.750000
vt 0.020391 0.500000
vt 0.170686 0.250000
vt 0.320981 0.250000
vt 0.471276 0.500000
vt 0.170686 0.750000
vt 0.320981 0.750000
vt 0.170686 0.500000
vt 0.320981 0.500000
s 0
usemtl Material
f 26/50/19 27/54/19 25/47/19
f 28/55/20 31/59/20 27/54/20
f 32/60/21 29/57/21 31/59/21
f 30/58/22 25/48/22 29/57/22
f 31/59/23 25/49/23 27/53/23
f 28/56/24 30/58/24 32/60/24
f 26/50/19 28/55/19 27/54/19
f 28/55/20 32/60/20 31/59/20
f 32/60/21 30/58/21 29/57/21
f 30/58/22 26/51/22 25/48/22
f 31/59/23 29/57/23 25/49/23
f 28/56/24 26/52/24 30/58/24
o Cube.004
v 0.240781 -1.624955 1.289509
v 0.237394 -1.586241 1.360914
v -0.174935 -1.661325 1.289509
v -0.178322 -1.622612 1.360914
v 0.302385 -0.377472 0.578359
v 0.296237 -0.307200 0.707973
v -0.452227 -0.443493 0.578359
v -0.458375 -0.373220 0.707973
vn 0.0766 -0.8750 0.4780
vn -0.9801 -0.1901 0.0566
vn -0.0766 0.8750 -0.4780
vn 0.9983 -0.0170 0.0566
vn 0.0434 -0.4964 -0.8670
vn -0.0399 0.4558 0.8892
vt 0.159950 0.000000
vt 0.159950 1.000000
vt 0.034018 0.750000
vt 0.285883 0.000000
vt 0.285883 1.000000
vt 0.411815 0.750000
vt 0.034018 0.500000
vt 0.159950 0.250000
vt 0.285883 0.250000
vt 0.411815 0.500000
vt 0.159950 0.750000
vt 0.285883 0.750000
vt 0.159950 0.500000
vt 0.285883 0.500000
s 0
usemtl Material
f 34/64/25 35/68/25 33/61/25
f 36/69/26 39/73/26 35/68/26
f 40/74/27 37/71/27 39/73/27
f 38/72/28 33/62/28 37/71/28
f 39/73/29 33/63/29 35/67/29
f 36/70/30 38/72/30 40/74/30
f 34/64/25 36/69/25 35/68/25
f 36/69/26 40/74/26 39/73/26
f 40/74/27 38/72/27 37/71/27
f 38/72/28 34/65/28 33/62/28
f 39/73/29 37/71/29 33/63/29
f 36/70/30 34/66/30 38/72/30
o Cube.005
v 0.902437 0.289686 0.782929
v 0.867826 0.289686 0.835949
v 1.793341 0.289686 1.364491
v 1.758731 0.289686 1.417512
v 0.902437 -0.231882 0.782929
v 0.867826 -0.231882 0.835949
v 1.793341 -0.231882 1.364491
v 1.758731 -0.231882 1.417512
vn -0.0000 1.0000 -0.0000
vn 0.8374 -0.0000 0.5466
vn -0.0000 -1.0000 -0.0000
vn -0.8374 -0.0000 -0.5466
vn 0.5466 -0.0000 -0.8374
vn -0.5466 -0.0000 0.8374
vt 0.159414 0.000000
vt 0.159414 1.000000
vt 0.019910 0.750000
vt 0.298919 0.000000
vt 0.298919 1.000000
vt 0.438424 0.750000
vt 0.019910 0.500000
vt 0.159414 0.250000
vt 0.298919 0.250000
vt 0.438424 0.500000
vt 0.159414 0.750000
vt 0.298919 0.750000
vt 0.159414 0.500000
vt 0.298919 0.500000
s 0
usemtl Material
f 42/78/31 43/82/31 41/75/31
f 44/83/32 47/87/32 43/82/32
f 48/88/33 45/85/33 47/87/33
f 46/86/34 41/76/34 45/85/34
f 47/87/35 41/77/35 43/81/35
f 44/84/36 46/86/36 48/88/36
f 42/78/31 44/83/31 43/82/31
f 44/83/32 48/88/32 47/87/32
f 48/88/33 46/86/33 45/85/33
f 46/86/34 42/79/34 41/76/34
f 47/87/35 45/85/35 41/77/35
f 44/84/36 42/80/36 46/86/36
