# Blender 3.4.1
# www.blender.org
mtllib ObjectStoneWall.mtl
o Cube
v 2.173519 -2.173519 4.657889
v 2.173519 -2.173519 0.310852
v -2.173519 -2.173519 4.657889
v -2.173519 -2.173519 0.310852
v 2.173519 2.173519 4.657889
v 2.173519 2.173519 0.310852
v -2.173519 2.173519 4.657889
v -2.173519 2.173519 0.310852
vn -0.0000 -0.0000 1.0000
vn -1.0000 -0.0000 -0.0000
vn -0.0000 1.0000 -0.0000
vn -0.0000 -0.0000 -1.0000
vn -0.0000 -1.0000 -0.0000
vn 1.0000 -0.0000 -0.0000
vt 0.625000 0.500000
vt 0.003475 0.013213
vt 0.993434 0.033246
vt 0.001074 1.000789
vt 0.375000 0.500000
vt 0.980938 0.994495
vt 0.625000 0.750000
vt 0.014057 0.024283
vt 0.985801 0.015601
vt 0.019377 0.990848
vt 0.375000 0.750000
vt 0.983401 1.003177
vt 0.875000 0.500000
vt 0.984773 0.015936
vt 0.021686 0.020614
vt 0.125000 0.500000
vt 0.009191 0.981863
vt 0.979166 0.987749
vt 0.875000 0.750000
vt 0.983247 0.018948
vt 0.012960 0.010329
vt 0.007352 0.982142
vt 0.988568 0.985513
vt 0.125000 0.750000
s 0
usemtl Material
f 5/13/1 3/7/1 1/1/1
f 3/8/2 8/23/2 4/10/2
f 7/21/3 6/18/3 8/22/3
f 2/5/4 8/24/4 6/16/4
f 1/2/5 4/12/5 2/4/5
f 5/15/6 2/6/6 6/17/6
f 5/13/1 7/19/1 3/7/1
f 3/8/2 7/20/2 8/23/2
f 7/21/3 5/14/3 6/18/3
f 2/5/4 4/11/4 8/24/4
f 1/2/5 3/9/5 4/12/5
f 5/15/6 1/3/6 2/6/6
