# Blender 3.4.1
# www.blender.org
mtllib ObjectLandClaimBanner.mtl
o Cube
v -0.614867 -3.055901 -0.000001
v -0.614867 -3.055901 6.132067
v -0.614867 -2.027704 -0.000001
v -0.614867 -2.027704 6.132067
v 0.575921 -3.055901 -0.000001
v 0.575921 -3.055901 6.132067
v 0.575921 -2.027704 -0.000001
v 0.575921 -2.027704 6.132067
vn -1.0000 -0.0000 -0.0000
vn -0.0000 1.0000 -0.0000
vn 1.0000 -0.0000 -0.0000
vn -0.0000 -1.0000 -0.0000
vn -0.0000 -0.0000 -1.0000
vn -0.0000 -0.0000 1.0000
vt 0.172535 0.000000
vt 0.172535 1.000000
vt 0.032072 0.750000
vt 0.312997 0.000000
vt 0.312997 1.000000
vt 0.453460 0.750000
vt 0.032072 0.500000
vt 0.172535 0.250000
vt 0.312997 0.250000
vt 0.453460 0.500000
vt 0.172535 0.750000
vt 0.312997 0.750000
vt 0.172535 0.500000
vt 0.312997 0.500000
s 0
usemtl Material
f 2/4/1 3/8/1 1/1/1
f 4/9/2 7/13/2 3/8/2
f 8/14/3 5/11/3 7/13/3
f 6/12/4 1/2/4 5/11/4
f 7/13/5 1/3/5 3/7/5
f 4/10/6 6/12/6 8/14/6
f 2/4/1 4/9/1 3/8/1
f 4/9/2 8/14/2 7/13/2
f 8/14/3 6/12/3 5/11/3
f 6/12/4 2/5/4 1/2/4
f 7/13/5 5/11/5 1/3/5
f 4/10/6 2/6/6 6/12/6
o Cube.001
v -0.614867 1.944015 -0.000001
v -0.614867 1.944015 6.132067
v -0.614867 2.972212 -0.000001
v -0.614867 2.972212 6.132067
v 0.575921 1.944015 -0.000001
v 0.575921 1.944015 6.132067
v 0.575921 2.972212 -0.000001
v 0.575921 2.972212 6.132067
vn -1.0000 -0.0000 -0.0000
vn -0.0000 1.0000 -0.0000
vn 1.0000 -0.0000 -0.0000
vn -0.0000 -1.0000 -0.0000
vn -0.0000 -0.0000 -1.0000
vn -0.0000 -0.0000 1.0000
vt 0.158047 0.000000
vt 0.158047 1.000000
vt 0.014857 0.750000
vt 0.301237 0.000000
vt 0.301237 1.000000
vt 0.444427 0.750000
vt 0.014857 0.500000
vt 0.158047 0.250000
vt 0.301237 0.250000
vt 0.444427 0.500000
vt 0.158047 0.750000
vt 0.301237 0.750000
vt 0.158047 0.500000
vt 0.301237 0.500000
s 0
usemtl Material
f 10/18/7 11/22/7 9/15/7
f 12/23/8 15/27/8 11/22/8
f 16/28/9 13/25/9 15/27/9
f 14/26/10 9/16/10 13/25/10
f 15/27/11 9/17/11 11/21/11
f 12/24/12 14/26/12 16/28/12
f 10/18/7 12/23/7 11/22/7
f 12/23/8 16/28/8 15/27/8
f 16/28/9 14/26/9 13/25/9
f 14/26/10 10/19/10 9/16/10
f 15/27/11 13/25/11 9/17/11
f 12/24/12 10/20/12 14/26/12
o Cube.002
v 0.047298 1.944014 4.050622
v 0.047299 -2.511476 4.050622
v -0.063525 1.944014 4.050622
v -0.063524 -2.511476 4.050622
v 0.047298 1.944014 5.863036
v 0.047298 -2.511476 5.863036
v -0.063525 1.944014 5.863036
v -0.063524 -2.511476 5.863036
vn -0.0000 -0.0000 -1.0000
vn -1.0000 -0.0000 -0.0000
vn -0.0000 -0.0000 1.0000
vn 1.0000 -0.0000 -0.0000
vn -0.0000 1.0000 -0.0000
vn -0.0000 -1.0000 -0.0000
vt 0.678901 0.000000
vt 0.678901 1.000000
vt 0.536704 0.750000
vt 0.821099 0.000000
vt 0.821099 1.000000
vt 0.963296 0.750000
vt 0.536704 0.500000
vt 0.678901 0.250000
vt 0.821099 0.250000
vt 0.963296 0.500000
vt 0.678901 0.750000
vt 0.821099 0.750000
vt 0.678901 0.500000
vt 0.821099 0.500000
s 0
usemtl Material
f 18/32/13 19/36/13 17/29/13
f 20/37/14 23/41/14 19/36/14
f 24/42/15 21/39/15 23/41/15
f 22/40/16 17/30/16 21/39/16
f 23/41/17 17/31/17 19/35/17
f 20/38/18 22/40/18 24/42/18
f 18/32/13 20/37/13 19/36/13
f 20/37/14 24/42/14 23/41/14
f 24/42/15 22/40/15 21/39/15
f 22/40/16 18/33/16 17/30/16
f 23/41/17 21/39/17 17/31/17
f 20/38/18 18/34/18 22/40/18
