# Blender 3.4.1
# www.blender.org
mtllib RobotMechWolf.mtl
o Cube
v -1.758018 0.645895 1.235387
v -1.758018 0.645895 2.144320
v 2.068438 0.940952 1.517878
v 2.068438 0.940952 3.020804
v -1.758018 -0.257101 1.235387
v -1.758018 -0.257101 2.144320
v 2.068438 -0.552159 1.517878
v 2.068438 -0.552159 3.020804
vn -0.0769 0.9970 -0.0000
vn 1.0000 -0.0000 -0.0000
vn -0.0769 -0.9970 -0.0000
vn -1.0000 -0.0000 -0.0000
vn 0.0736 -0.0000 -0.9973
vn -0.2233 -0.0000 0.9748
vt 0.220953 0.000000
vt 0.007304 0.750000
vt 0.220953 1.000000
vt 0.434602 0.000000
vt 0.434602 1.000000
vt 0.648252 0.750000
vt 0.220953 0.250000
vt 0.007304 0.500000
vt 0.434602 0.250000
vt 0.648252 0.500000
vt 0.220953 0.750000
vt 0.434602 0.750000
vt 0.220953 0.500000
vt 0.434602 0.500000
s 0
usemtl Material
f 2/4/1 3/7/1 1/1/1
f 4/9/2 7/13/2 3/7/2
f 7/13/3 6/12/3 5/11/3
f 6/12/4 1/3/4 5/11/4
f 3/8/5 5/11/5 1/2/5
f 4/10/6 6/12/6 8/14/6
f 2/4/1 4/9/1 3/7/1
f 4/9/2 8/14/2 7/13/2
f 7/13/3 8/14/3 6/12/3
f 6/12/4 2/5/4 1/3/4
f 3/8/5 7/13/5 5/11/5
f 4/10/6 2/6/6 6/12/6
o Cube.001
v -1.758018 -0.283443 1.235387
v -1.631407 -0.283443 -0.130204
v -1.375399 -0.283443 1.263634
v -1.248788 -0.283443 -0.101957
v -1.758018 -0.041767 1.235387
v -1.631407 -0.041767 -0.130204
v -1.375399 -0.041767 1.263634
v -1.248788 -0.041767 -0.101957
vn -0.0000 -1.0000 -0.0000
vn 0.9957 -0.0000 0.0923
vn -0.0000 1.0000 -0.0000
vn -0.9957 -0.0000 -0.0923
vn -0.0736 -0.0000 0.9973
vn 0.0736 -0.0000 -0.9973
vt 0.375000 0.000000
vt 0.375000 1.000000
vt 0.125000 0.750000
vt 0.625000 0.000000
vt 0.625000 1.000000
vt 0.875000 0.750000
vt 0.125000 0.500000
vt 0.375000 0.250000
vt 0.625000 0.250000
vt 0.875000 0.500000
vt 0.375000 0.750000
vt 0.625000 0.750000
vt 0.375000 0.500000
vt 0.625000 0.500000
s 0
usemtl Material
f 10/18/7 11/22/7 9/15/7
f 12/23/8 15/27/8 11/22/8
f 15/27/9 14/26/9 13/25/9
f 14/26/10 9/16/10 13/25/10
f 15/27/11 9/17/11 11/21/11
f 12/24/12 14/26/12 16/28/12
f 10/18/7 12/23/7 11/22/7
f 12/23/8 16/28/8 15/27/8
f 15/27/9 16/28/9 14/26/9
f 14/26/10 10/19/10 9/16/10
f 15/27/11 13/25/11 9/17/11
f 12/24/12 10/20/12 14/26/12
o Cube.002
v -1.758018 0.437802 1.235387
v -1.631407 0.437802 -0.130204
v -1.375399 0.437802 1.263634
v -1.248788 0.437802 -0.101957
v -1.758018 0.679478 1.235387
v -1.631407 0.679478 -0.130204
v -1.375399 0.679478 1.263634
v -1.248788 0.679478 -0.101957
vn -0.0000 -1.0000 -0.0000
vn 0.9957 -0.0000 0.0923
vn -0.0000 1.0000 -0.0000
vn -0.9957 -0.0000 -0.0923
vn -0.0736 -0.0000 0.9973
vn 0.0736 -0.0000 -0.9973
vt 0.375000 0.000000
vt 0.375000 1.000000
vt 0.125000 0.750000
vt 0.625000 0.000000
vt 0.625000 1.000000
vt 0.875000 0.750000
vt 0.125000 0.500000
vt 0.375000 0.250000
vt 0.625000 0.250000
vt 0.875000 0.500000
vt 0.375000 0.750000
vt 0.625000 0.750000
vt 0.375000 0.500000
vt 0.625000 0.500000
s 0
usemtl Material
f 18/32/13 19/36/13 17/29/13
f 20/37/14 23/41/14 19/36/14
f 23/41/15 22/40/15 21/39/15
f 22/40/16 17/30/16 21/39/16
f 23/41/17 17/31/17 19/35/17
f 20/38/18 22/40/18 24/42/18
f 18/32/13 20/37/13 19/36/13
f 20/37/14 24/42/14 23/41/14
f 23/41/15 24/42/15 22/40/15
f 22/40/16 18/33/16 17/30/16
f 23/41/17 21/39/17 17/31/17
f 20/38/18 18/34/18 22/40/18
o Cube.003
v 1.780517 0.437802 1.746393
v 1.907127 0.437802 -0.130204
v 2.163135 0.437802 1.774640
v 2.289746 0.437802 -0.101957
v 1.780517 0.679478 1.746393
v 1.907127 0.679478 -0.130204
v 2.163135 0.679478 1.774640
v 2.289746 0.679478 -0.101957
vn -0.0000 -1.0000 -0.0000
vn 0.9977 -0.0000 0.0673
vn -0.0000 1.0000 -0.0000
vn -0.9977 -0.0000 -0.0673
vn -0.0736 -0.0000 0.9973
vn 0.0736 -0.0000 -0.9973
vt 0.375000 0.000000
vt 0.375000 1.000000
vt 0.125000 0.750000
vt 0.625000 0.000000
vt 0.625000 1.000000
vt 0.875000 0.750000
vt 0.375000 0.250000
vt 0.125000 0.500000
vt 0.625000 0.250000
vt 0.875000 0.500000
vt 0.375000 0.750000
vt 0.625000 0.750000
vt 0.375000 0.500000
vt 0.625000 0.500000
s 0
usemtl Material
f 25/43/19 28/51/19 27/49/19
f 28/51/20 31/55/20 27/49/20
f 32/56/21 29/53/21 31/55/21
f 30/54/22 25/44/22 29/53/22
f 31/55/23 25/45/23 27/50/23
f 28/52/24 30/54/24 32/56/24
f 25/43/19 26/46/19 28/51/19
f 28/51/20 32/56/20 31/55/20
f 32/56/21 30/54/21 29/53/21
f 30/54/22 26/47/22 25/44/22
f 31/55/23 29/53/23 25/45/23
f 28/52/24 26/48/24 30/54/24
o Cube.004
v 1.528910 -0.473139 1.746393
v 1.655521 -0.473139 -0.130204
v 1.911529 -0.473139 1.774640
v 2.038140 -0.473139 -0.101957
v 1.528910 -0.231463 1.746393
v 1.655521 -0.231463 -0.130204
v 1.911529 -0.231463 1.774640
v 2.038140 -0.231463 -0.101957
vn -0.0000 -1.0000 -0.0000
vn 0.9977 -0.0000 0.0673
vn -0.0000 1.0000 -0.0000
vn -0.9977 -0.0000 -0.0673
vn -0.0736 -0.0000 0.9973
vn 0.0736 -0.0000 -0.9973
vt 0.375000 0.000000
vt 0.375000 1.000000
vt 0.125000 0.750000
vt 0.625000 0.000000
vt 0.625000 1.000000
vt 0.875000 0.750000
vt 0.375000 0.250000
vt 0.125000 0.500000
vt 0.625000 0.250000
vt 0.875000 0.500000
vt 0.375000 0.750000
vt 0.625000 0.750000
vt 0.375000 0.500000
vt 0.625000 0.500000
s 0
usemtl Material
f 33/57/25 36/65/25 35/63/25
f 36/65/26 39/69/26 35/63/26
f 40/70/27 37/67/27 39/69/27
f 38/68/28 33/58/28 37/67/28
f 39/69/29 33/59/29 35/64/29
f 36/66/30 38/68/30 40/70/30
f 33/57/25 34/60/25 36/65/25
f 36/65/26 40/70/26 39/69/26
f 40/70/27 38/68/27 37/67/27
f 38/68/28 34/61/28 33/58/28
f 39/69/29 37/67/29 33/59/29
f 36/66/30 34/62/30 38/68/30
o Cube.005
v 1.690452 0.628441 2.979227
v 1.804537 0.628441 4.032396
v 3.346876 0.224675 2.988385
v 3.230174 0.224675 3.246390
v 1.690452 -0.464496 2.979227
v 1.804537 -0.464496 4.032396
v 3.346876 -0.060730 2.988385
v 3.230174 -0.060730 3.246390
vn 0.2349 0.9662 0.1063
vn 0.9111 -0.0000 0.4121
vn 0.2349 -0.9662 0.1063
vn -0.9942 -0.0000 0.1077
vn 0.0055 -0.0000 -1.0000
vn 0.4828 -0.0000 0.8757
vn 0.2581 0.9657 -0.0280
vn 0.2581 -0.9657 -0.0280
vt 0.236473 0.000000
vt 0.236473 1.000000
vt 0.042751 0.750000
vt 0.430194 0.000000
vt 0.430194 1.000000
vt 0.623915 0.750000
vt 0.236473 0.250000
vt 0.042751 0.500000
vt 0.430194 0.250000
vt 0.623915 0.500000
vt 0.236473 0.750000
vt 0.430194 0.750000
vt 0.236473 0.500000
vt 0.430194 0.500000
s 0
usemtl Material
f 41/71/31 44/79/31 43/77/31
f 44/79/32 47/83/32 43/77/32
f 48/84/33 45/81/33 47/83/33
f 46/82/34 41/72/34 45/81/34
f 47/83/35 41/73/35 43/78/35
f 44/80/36 46/82/36 48/84/36
f 41/71/37 42/74/37 44/79/37
f 44/79/32 48/84/32 47/83/32
f 48/84/38 46/82/38 45/81/38
f 46/82/34 42/75/34 41/72/34
f 47/83/35 45/81/35 41/73/35
f 44/80/36 42/76/36 46/82/36
o Cube.006
v -1.608376 0.197257 1.995016
v -2.289330 0.253806 2.649336
v -1.413902 0.209231 2.133564
v -2.094857 0.265780 2.787883
v -1.608376 -0.014470 2.013315
v -2.289330 0.042079 2.667634
v -1.413902 -0.002496 2.151862
v -2.094857 0.054053 2.806181
vn -0.0000 0.9963 -0.0861
vn 0.6942 0.0620 0.7171
vn -0.0000 -0.9963 0.0861
vn -0.6942 -0.0620 -0.7171
vn 0.5817 -0.0700 -0.8104
vn -0.5817 0.0700 0.8104
vt 0.375000 0.000000
vt 0.375000 1.000000
vt 0.125000 0.750000
vt 0.625000 0.000000
vt 0.625000 1.000000
vt 0.616667 0.683333
vt 0.375000 0.250000
vt 0.125000 0.500000
vt 0.625000 0.250000
vt 0.616667 0.433333
vt 0.375000 0.750000
vt 0.625000 0.750000
vt 0.366667 0.683333
vt 0.375000 0.500000
vt 0.366667 0.433333
vt 0.625000 0.500000
s 0
usemtl Material
f 49/85/39 52/93/39 51/91/39
f 52/93/40 55/98/40 51/91/40
f 56/100/41 53/95/41 55/98/41
f 54/96/42 49/86/42 53/95/42
f 55/98/43 49/87/43 51/92/43
f 52/94/44 54/97/44 56/99/44
f 49/85/39 50/88/39 52/93/39
f 52/93/40 56/100/40 55/98/40
f 56/100/41 54/96/41 53/95/41
f 54/96/42 50/89/42 49/86/42
f 55/98/43 53/95/43 49/87/43
f 52/94/44 50/90/44 54/97/44
o Cube.007
v 2.095856 -0.379175 3.492452
v 2.102656 -0.407055 3.491715
v 2.105768 -0.381323 3.665231
v 2.112568 -0.409203 3.664495
v 2.261974 -0.338420 3.483429
v 2.268775 -0.366300 3.482692
v 2.271886 -0.340568 3.656208
v 2.278686 -0.368448 3.655472
vn -0.9699 -0.2379 0.0527
vn 0.0573 -0.0124 0.9983
vn 0.9698 0.2379 -0.0527
vn -0.0573 0.0124 -0.9983
vn -0.2369 0.9712 0.0257
vn 0.2369 -0.9712 -0.0257
vt 0.375000 0.000000
vt 0.375000 1.000000
vt 0.125000 0.750000
vt 0.625000 0.000000
vt 0.625000 1.000000
vt 0.875000 0.750000
vt 0.125000 0.500000
vt 0.375000 0.250000
vt 0.625000 0.250000
vt 0.875000 0.500000
vt 0.375000 0.750000
vt 0.625000 0.750000
vt 0.375000 0.500000
vt 0.625000 0.500000
s 0
usemtl Material
f 58/104/45 59/108/45 57/101/45
f 60/109/46 63/113/46 59/108/46
f 64/114/47 61/111/47 63/113/47
f 62/112/48 57/102/48 61/111/48
f 63/113/49 57/103/49 59/107/49
f 60/110/50 62/112/50 64/114/50
f 58/104/45 60/109/45 59/108/45
f 60/109/46 64/114/46 63/113/46
f 64/114/47 62/112/47 61/111/47
f 62/112/48 58/105/48 57/102/48
f 63/113/49 61/111/49 57/103/49
f 60/110/50 58/106/50 62/112/50
o Cube.008
v 2.109840 0.529387 3.429310
v 2.125662 0.549718 3.427596
v 2.118738 0.531499 3.584414
v 2.134560 0.551830 3.582700
v 1.919309 0.580604 3.439542
v 1.935131 0.600935 3.437828
v 1.928206 0.582716 3.594646
v 1.944028 0.603047 3.592932
vn 0.7872 -0.6157 -0.0368
vn 0.0630 0.0351 0.9974
vn -0.7872 0.6157 0.0368
vn -0.0630 -0.0351 -0.9974
vn -0.2581 -0.9657 0.0280
vn 0.2581 0.9657 -0.0280
vt 0.375000 0.000000
vt 0.375000 1.000000
vt 0.125000 0.750000
vt 0.625000 0.000000
vt 0.625000 1.000000
vt 0.875000 0.750000
vt 0.125000 0.500000
vt 0.375000 0.250000
vt 0.625000 0.250000
vt 0.875000 0.500000
vt 0.375000 0.750000
vt 0.625000 0.750000
vt 0.375000 0.500000
vt 0.625000 0.500000
s 0
usemtl Material
f 65/115/51 68/123/51 67/122/51
f 67/122/52 72/128/52 71/127/52
f 72/128/53 69/125/53 71/127/53
f 70/126/54 65/116/54 69/125/54
f 71/127/55 65/117/55 67/121/55
f 68/124/56 70/126/56 72/128/56
f 65/115/51 66/118/51 68/123/51
f 67/122/52 68/123/52 72/128/52
f 72/128/53 70/126/53 69/125/53
f 70/126/54 66/119/54 65/116/54
f 71/127/55 69/125/55 65/117/55
f 68/124/56 66/120/56 70/126/56
