# Blender 3.4.1
# www.blender.org
mtllib object_stone_boulder.mtl
o Cylinder
v 1.642970 0.384482 0.000000
v 0.500965 0.491303 2.463416
v 1.272907 -0.449983 0.260045
v 0.532292 -0.569469 1.679877
v 0.298465 -1.375202 0.011513
v -0.261999 -0.677387 2.528802
v -0.421183 -1.917071 0.000000
v -0.578262 -1.220512 2.427031
v -1.209620 -1.037956 0.000000
v -1.023213 -0.800097 2.699800
v -1.510776 0.384482 0.000000
v -0.657035 -0.016635 1.925140
v -1.209620 1.806920 0.000000
v -0.817629 0.966915 2.552949
v -0.421183 2.686035 0.000000
v -0.400611 1.855819 2.514097
v 0.416891 2.098822 -0.045611
v 0.058443 1.195171 2.207654
v 1.341814 1.806920 0.000000
v 0.690692 1.515647 2.444232
vn 0.8669 -0.2501 0.4312
vn 0.6273 -0.7321 0.2656
vn 0.5783 -0.7735 0.2594
vn -0.7369 -0.6609 0.1420
vn -0.9112 -0.1929 0.3639
vn -0.8830 0.1869 0.4305
vn -0.7261 0.6512 0.2210
vn 0.5435 0.7457 0.3855
vn -0.6749 0.2354 0.6993
vn 0.2871 0.9392 0.1884
vn 0.9408 0.1992 0.2744
vn 0.0635 -0.0978 -0.9932
vn 0.8663 -0.2800 0.4137
vn 0.4655 -0.8208 0.3312
vn 0.7912 -0.5208 0.3205
vn -0.6457 -0.7555 0.1111
vn -0.8968 0.4419 0.0230
vn -0.9743 -0.2104 0.0804
vn -0.8669 0.4185 0.2708
vn 0.8440 0.5113 0.1619
vn 0.6895 -0.4170 0.5921
vn -0.3884 0.0891 0.9172
vn 0.3954 -0.1459 0.9068
vn 0.6944 0.3151 0.6469
vn 0.4260 -0.4363 0.7925
vn -0.2284 0.2024 0.9523
vn -0.6602 0.2518 0.7076
vn -0.5104 0.8231 0.2489
vn 0.8933 -0.1576 0.4210
vn -0.4278 -0.0906 -0.8993
vn -0.4962 0.6707 -0.5514
vn -0.0000 -0.0000 -1.0000
vn 0.0127 -0.1148 -0.9933
vn -0.0408 0.0193 -0.9990
vn 0.1081 0.0512 -0.9928
vt 1.000000 0.500000
vt -0.000000 0.500000
vt 0.750000 0.490000
vt 1.000000 1.000000
vt 0.250000 0.490000
vt -0.000000 1.000000
vt 0.900000 0.500000
vt 0.891068 0.444164
vt 0.900000 1.000000
vt 0.391068 0.444164
vt 0.800000 0.500000
vt 0.978254 0.324164
vt 0.800000 1.000000
vt 0.478254 0.324164
vt 0.700000 0.500000
vt 0.978254 0.175836
vt 0.700000 1.000000
vt 0.478254 0.175836
vt 0.600000 0.500000
vt 0.891068 0.055836
vt 0.600000 1.000000
vt 0.391068 0.055836
vt 0.500000 0.500000
vt 0.750000 0.010000
vt 0.500000 1.000000
vt 0.250000 0.010000
vt 0.400000 0.500000
vt 0.608932 0.055836
vt 0.400000 1.000000
vt 0.108932 0.055836
vt 0.300000 0.500000
vt 0.521746 0.175836
vt 0.300000 1.000000
vt 0.021746 0.175836
vt 0.200000 0.500000
vt 0.521746 0.324164
vt 0.021746 0.324164
vt 0.200000 1.000000
vt 0.100000 0.500000
vt 0.608932 0.444164
vt 0.108932 0.444164
vt 0.100000 1.000000
s 0
usemtl Material
f 1/1/1 4/9/1 3/7/1
f 4/9/2 5/11/2 3/7/2
f 5/11/3 8/17/3 7/15/3
f 8/17/4 9/19/4 7/15/4
f 9/19/5 12/25/5 11/23/5
f 12/25/6 13/27/6 11/23/6
f 13/27/7 16/33/7 15/31/7
f 15/31/8 18/38/8 17/35/8
f 18/37/9 12/26/9 6/14/9
f 17/35/10 20/42/10 19/39/10
f 20/42/11 1/2/11 19/39/11
f 3/8/12 11/24/12 17/36/12
f 1/1/13 2/4/13 4/9/13
f 4/9/14 6/13/14 5/11/14
f 5/11/15 6/13/15 8/17/15
f 8/17/16 10/21/16 9/19/16
f 9/19/17 10/21/17 12/25/17
f 12/25/18 14/29/18 13/27/18
f 13/27/19 14/29/19 16/33/19
f 15/31/20 16/33/20 18/38/20
f 6/14/21 4/10/21 2/5/21
f 2/5/22 20/41/22 18/37/22
f 18/37/23 16/34/23 14/30/23
f 12/26/24 10/22/24 8/18/24
f 18/37/25 14/30/25 12/26/25
f 6/14/26 2/5/26 18/37/26
f 12/26/27 8/18/27 6/14/27
f 17/35/28 18/38/28 20/42/28
f 20/42/29 2/6/29 1/2/29
f 19/40/30 1/3/30 3/8/30
f 3/8/31 5/12/31 7/16/31
f 7/16/32 9/20/32 11/24/32
f 11/24/32 13/28/32 15/32/32
f 17/36/33 19/40/33 3/8/33
f 11/24/34 15/32/34 17/36/34
f 3/8/35 7/16/35 11/24/35
