# Blender 3.4.1
# www.blender.org
mtllib object_felled_tree.mtl
o Cylinder
v 2.943378 -0.101748 1.167564
v -3.668997 -0.101748 0.227046
v 2.944306 -0.216790 1.155905
v -3.668698 -0.138754 0.223295
v 2.947055 -0.327412 1.121378
v -3.667814 -0.174338 0.212189
v 2.951518 -0.429361 1.065308
v -3.666378 -0.207132 0.194153
v 2.957524 -0.518720 0.989851
v -3.664446 -0.235877 0.169880
v 2.964843 -0.592055 0.897906
v -3.662092 -0.259467 0.140304
v 2.973193 -0.646548 0.793007
v -3.659406 -0.276996 0.106560
v 2.982253 -0.680105 0.679185
v -3.656492 -0.287790 0.069947
v 2.991675 -0.691435 0.560813
v -3.653461 -0.291435 0.031870
v 3.001097 -0.680105 0.442442
v -3.650430 -0.287790 -0.006207
v 3.010157 -0.646548 0.328620
v -3.647516 -0.276996 -0.042820
v 3.018507 -0.592055 0.223721
v -3.644830 -0.259467 -0.076564
v 3.025826 -0.518720 0.131776
v -3.642476 -0.235877 -0.106140
v 3.031832 -0.429361 0.056319
v -3.640543 -0.207132 -0.130413
v 3.036295 -0.327412 0.000249
v -3.639108 -0.174338 -0.148449
v 3.039043 -0.216790 -0.034279
v -3.638224 -0.138754 -0.159555
v 3.039971 -0.101748 -0.045937
v -3.637925 -0.101748 -0.163306
v 3.039043 0.013294 -0.034279
v -3.638224 -0.064742 -0.159555
v 3.036295 0.123916 0.000249
v -3.639108 -0.029158 -0.148449
v 3.031832 0.225865 0.056319
v -3.640543 0.003636 -0.130413
v 3.025826 0.315224 0.131776
v -3.642476 0.032381 -0.106140
v 3.018507 0.388559 0.223721
v -3.644830 0.055971 -0.076564
v 3.010157 0.443052 0.328620
v -3.647516 0.073500 -0.042820
v 3.001097 0.476609 0.442442
v -3.650430 0.084294 -0.006207
v 2.991675 0.487939 0.560813
v -3.653461 0.087939 0.031870
v 2.982253 0.476609 0.679185
v -3.656492 0.084294 0.069947
v 2.973193 0.443052 0.793007
v -3.659406 0.073500 0.106560
v 2.964843 0.388559 0.897906
v -3.662092 0.055971 0.140304
v 2.957524 0.315224 0.989851
v -3.664446 0.032381 0.169880
v 2.951518 0.225865 1.065308
v -3.666378 0.003636 0.194153
v 2.947055 0.123916 1.121378
v -3.667814 -0.029158 0.212189
v 2.944306 0.013294 1.155905
v -3.668698 -0.064742 0.223295
vn -0.1401 -0.1009 0.9850
vn -0.1367 -0.2982 0.9446
vn -0.1302 -0.4822 0.8663
vn -0.1210 -0.6452 0.7544
vn -0.1095 -0.7813 0.6145
vn -0.0963 -0.8864 0.4528
vn -0.0819 -0.9577 0.2758
vn -0.0670 -0.9937 0.0898
vn -0.0519 -0.9937 -0.0993
vn -0.0372 -0.9577 -0.2853
vn -0.0234 -0.8864 -0.4623
vn -0.0109 -0.7813 -0.6240
vn -0.0001 -0.6452 -0.7640
vn 0.0085 -0.4822 -0.8760
vn 0.0144 -0.2982 -0.9544
vn 0.0175 -0.1009 -0.9947
vn 0.0175 0.1009 -0.9947
vn 0.0144 0.2982 -0.9544
vn 0.0085 0.4822 -0.8760
vn -0.0001 0.6452 -0.7640
vn -0.0109 0.7813 -0.6240
vn -0.0234 0.8864 -0.4623
vn -0.0372 0.9577 -0.2853
vn -0.0519 0.9937 -0.0993
vn -0.0670 0.9937 0.0898
vn -0.0819 0.9577 0.2758
vn -0.0963 0.8864 0.4528
vn -0.1095 0.7813 0.6145
vn -0.1210 0.6452 0.7544
vn -0.1302 0.4822 0.8663
vn -0.9968 -0.0000 -0.0793
vn -0.1367 0.2982 0.9446
vn -0.1401 0.1009 0.9850
vn 0.9968 -0.0000 0.0793
vn -0.9968 -0.0001 -0.0793
vn -0.9968 -0.0002 -0.0793
vn -0.9968 0.0001 -0.0793
vn -0.9968 0.0002 -0.0793
vt 0.468227 0.500000
vt 0.042324 0.500000
vt 0.361751 0.490000
vt 0.468227 1.000000
vt 0.148800 0.490000
vt 0.042324 1.000000
vt 0.454918 0.500000
vt 0.381693 0.485388
vt 0.454918 1.000000
vt 0.168742 0.485388
vt 0.441608 0.500000
vt 0.400868 0.471731
vt 0.441608 1.000000
vt 0.187917 0.471731
vt 0.428299 0.500000
vt 0.418540 0.449553
vt 0.428299 1.000000
vt 0.205589 0.449553
vt 0.414989 0.500000
vt 0.434029 0.419706
vt 0.414989 1.000000
vt 0.221078 0.419706
vt 0.401680 0.500000
vt 0.446741 0.383337
vt 0.401680 1.000000
vt 0.233790 0.383337
vt 0.388370 0.500000
vt 0.456187 0.341844
vt 0.388370 1.000000
vt 0.243236 0.341844
vt 0.375061 0.500000
vt 0.462004 0.296822
vt 0.375061 1.000000
vt 0.249053 0.296822
vt 0.361751 0.500000
vt 0.463968 0.250000
vt 0.361751 1.000000
vt 0.251017 0.250000
vt 0.348442 0.500000
vt 0.462004 0.203178
vt 0.348442 1.000000
vt 0.249053 0.203178
vt 0.335132 0.500000
vt 0.456187 0.158156
vt 0.335132 1.000000
vt 0.243236 0.158156
vt 0.321823 0.500000
vt 0.446741 0.116663
vt 0.321823 1.000000
vt 0.233790 0.116663
vt 0.308514 0.500000
vt 0.434029 0.080294
vt 0.308514 1.000000
vt 0.221078 0.080294
vt 0.295204 0.500000
vt 0.418540 0.050447
vt 0.295204 1.000000
vt 0.205589 0.050447
vt 0.281895 0.500000
vt 0.400868 0.028269
vt 0.281895 1.000000
vt 0.187917 0.028269
vt 0.268585 0.500000
vt 0.381693 0.014612
vt 0.268585 1.000000
vt 0.168742 0.014612
vt 0.255276 0.500000
vt 0.361751 0.010000
vt 0.255276 1.000000
vt 0.148800 0.010000
vt 0.241966 0.500000
vt 0.341810 0.014612
vt 0.241966 1.000000
vt 0.128859 0.014612
vt 0.228657 0.500000
vt 0.322635 0.028269
vt 0.228657 1.000000
vt 0.109683 0.028269
vt 0.215347 0.500000
vt 0.304963 0.050447
vt 0.215347 1.000000
vt 0.092012 0.050447
vt 0.202038 0.500000
vt 0.289473 0.080294
vt 0.202038 1.000000
vt 0.076522 0.080294
vt 0.188728 0.500000
vt 0.276761 0.116663
vt 0.188728 1.000000
vt 0.063810 0.116663
vt 0.175419 0.500000
vt 0.267316 0.158156
vt 0.175419 1.000000
vt 0.054364 0.158156
vt 0.162110 0.500000
vt 0.261499 0.203178
vt 0.162110 1.000000
vt 0.048548 0.203178
vt 0.148800 0.500000
vt 0.259535 0.250000
vt 0.148800 1.000000
vt 0.046584 0.250000
vt 0.135491 0.500000
vt 0.261499 0.296822
vt 0.135491 1.000000
vt 0.048548 0.296822
vt 0.122181 0.500000
vt 0.267316 0.341844
vt 0.122181 1.000000
vt 0.054364 0.341844
vt 0.108872 0.500000
vt 0.276761 0.383337
vt 0.108872 1.000000
vt 0.063810 0.383337
vt 0.095562 0.500000
vt 0.289473 0.419706
vt 0.095562 1.000000
vt 0.076522 0.419706
vt 0.082253 0.500000
vt 0.304963 0.449553
vt 0.082253 1.000000
vt 0.092012 0.449553
vt 0.068943 0.500000
vt 0.322635 0.471731
vt 0.109683 0.471731
vt 0.068943 1.000000
vt 0.055634 0.500000
vt 0.341810 0.485388
vt 0.128859 0.485388
vt 0.055634 1.000000
s 0
usemtl Material.001
f 1/1/1 4/9/1 3/7/1
f 3/7/2 6/13/2 5/11/2
f 5/11/3 8/17/3 7/15/3
f 7/15/4 10/21/4 9/19/4
f 9/19/5 12/25/5 11/23/5
f 11/23/6 14/29/6 13/27/6
f 13/27/7 16/33/7 15/31/7
f 15/31/8 18/37/8 17/35/8
f 18/37/9 19/39/9 17/35/9
f 20/41/10 21/43/10 19/39/10
f 22/45/11 23/47/11 21/43/11
f 24/49/12 25/51/12 23/47/12
f 26/53/13 27/55/13 25/51/13
f 28/57/14 29/59/14 27/55/14
f 30/61/15 31/63/15 29/59/15
f 32/65/16 33/67/16 31/63/16
f 33/67/17 36/73/17 35/71/17
f 35/71/18 38/77/18 37/75/18
f 37/75/19 40/81/19 39/79/19
f 39/79/20 42/85/20 41/83/20
f 41/83/21 44/89/21 43/87/21
f 43/87/22 46/93/22 45/91/22
f 45/91/23 48/97/23 47/95/23
f 47/95/24 50/101/24 49/99/24
f 50/101/25 51/103/25 49/99/25
f 52/105/26 53/107/26 51/103/26
f 54/109/27 55/111/27 53/107/27
f 56/113/28 57/115/28 55/111/28
f 58/117/29 59/119/29 57/115/29
f 60/121/30 61/123/30 59/119/30
f 38/78/31 22/46/31 6/14/31
f 62/126/32 63/127/32 61/123/32
f 64/130/33 1/2/33 63/127/33
f 31/64/34 47/96/34 63/128/34
f 1/1/1 2/4/1 4/9/1
f 3/7/2 4/9/2 6/13/2
f 5/11/3 6/13/3 8/17/3
f 7/15/4 8/17/4 10/21/4
f 9/19/5 10/21/5 12/25/5
f 11/23/6 12/25/6 14/29/6
f 13/27/7 14/29/7 16/33/7
f 15/31/8 16/33/8 18/37/8
f 18/37/9 20/41/9 19/39/9
f 20/41/10 22/45/10 21/43/10
f 22/45/11 24/49/11 23/47/11
f 24/49/12 26/53/12 25/51/12
f 26/53/13 28/57/13 27/55/13
f 28/57/14 30/61/14 29/59/14
f 30/61/15 32/65/15 31/63/15
f 32/65/16 34/69/16 33/67/16
f 33/67/17 34/69/17 36/73/17
f 35/71/18 36/73/18 38/77/18
f 37/75/19 38/77/19 40/81/19
f 39/79/20 40/81/20 42/85/20
f 41/83/21 42/85/21 44/89/21
f 43/87/22 44/89/22 46/93/22
f 45/91/23 46/93/23 48/97/23
f 47/95/24 48/97/24 50/101/24
f 50/101/25 52/105/25 51/103/25
f 52/105/26 54/109/26 53/107/26
f 54/109/27 56/113/27 55/111/27
f 56/113/28 58/117/28 57/115/28
f 58/117/29 60/121/29 59/119/29
f 60/121/30 62/126/30 61/123/30
f 6/14/31 4/10/31 2/5/31
f 2/5/31 64/129/31 62/125/31
f 62/125/31 60/122/31 58/118/31
f 58/118/35 56/114/35 54/110/35
f 54/110/31 52/106/31 50/102/31
f 50/102/36 48/98/36 46/94/36
f 46/94/31 44/90/31 42/86/31
f 42/86/31 40/82/31 38/78/31
f 38/78/31 36/74/31 34/70/31
f 34/70/31 32/66/31 30/62/31
f 30/62/37 28/58/37 26/54/37
f 26/54/31 24/50/31 22/46/31
f 22/46/38 20/42/38 18/38/38
f 18/38/35 16/34/35 14/30/35
f 14/30/37 12/26/37 10/22/37
f 10/22/31 8/18/31 6/14/31
f 6/14/31 2/5/31 62/125/31
f 62/125/31 58/118/31 54/110/31
f 54/110/31 50/102/31 46/94/31
f 46/94/31 42/86/31 38/78/31
f 38/78/31 34/70/31 30/62/31
f 30/62/31 26/54/31 22/46/31
f 22/46/31 18/38/31 14/30/31
f 14/30/31 10/22/31 6/14/31
f 6/14/31 62/125/31 54/110/31
f 54/110/31 46/94/31 38/78/31
f 38/78/31 30/62/31 22/46/31
f 22/46/31 14/30/31 6/14/31
f 6/14/31 54/110/31 38/78/31
f 62/126/32 64/130/32 63/127/32
f 64/130/33 2/6/33 1/2/33
f 63/128/34 1/3/34 3/8/34
f 3/8/34 5/12/34 7/16/34
f 7/16/34 9/20/34 11/24/34
f 11/24/34 13/28/34 15/32/34
f 15/32/34 17/36/34 19/40/34
f 19/40/34 21/44/34 23/48/34
f 23/48/34 25/52/34 27/56/34
f 27/56/34 29/60/34 31/64/34
f 31/64/34 33/68/34 35/72/34
f 35/72/34 37/76/34 39/80/34
f 39/80/34 41/84/34 43/88/34
f 43/88/34 45/92/34 47/96/34
f 47/96/34 49/100/34 51/104/34
f 51/104/34 53/108/34 55/112/34
f 55/112/34 57/116/34 59/120/34
f 59/120/34 61/124/34 63/128/34
f 63/128/34 3/8/34 7/16/34
f 7/16/34 11/24/34 15/32/34
f 15/32/34 19/40/34 23/48/34
f 23/48/34 27/56/34 31/64/34
f 31/64/34 35/72/34 39/80/34
f 39/80/34 43/88/34 47/96/34
f 47/96/34 51/104/34 55/112/34
f 55/112/34 59/120/34 63/128/34
f 63/128/34 7/16/34 15/32/34
f 15/32/34 23/48/34 31/64/34
f 31/64/34 39/80/34 47/96/34
f 47/96/34 55/112/34 63/128/34
f 63/128/34 15/32/34 31/64/34
o Cube
v 0.139726 0.246774 0.574934
v -0.008264 1.015375 1.271138
v -1.193867 0.156190 0.468782
v -1.341857 0.924791 1.164986
v 0.145385 0.312245 0.447974
v -0.002605 1.080846 1.144178
v -1.188209 0.221660 0.341822
v -1.336199 0.990261 1.038025
vn -0.0132 -0.6727 0.7398
vn -0.9900 -0.1027 -0.0971
vn 0.0132 0.6727 -0.7398
vn 0.9900 0.1027 0.0971
vn 0.0963 -0.8864 -0.4528
vn -0.0963 0.8864 0.4528
vt 0.717928 0.000000
vt 0.717928 1.000000
vt 0.584965 0.750000
vt 0.850891 0.000000
vt 0.850891 1.000000
vt 0.983854 0.750000
vt 0.584965 0.500000
vt 0.717928 0.250000
vt 0.850891 0.250000
vt 0.983854 0.500000
vt 0.717928 0.750000
vt 0.850891 0.750000
vt 0.717928 0.500000
vt 0.850891 0.500000
s 0
usemtl Material.001
f 66/134/39 67/138/39 65/131/39
f 67/138/40 72/144/40 71/143/40
f 71/143/41 70/142/41 69/141/41
f 70/142/42 65/132/42 69/141/42
f 71/143/43 65/133/43 67/137/43
f 68/140/44 70/142/44 72/144/44
f 66/134/39 68/139/39 67/138/39
f 67/138/40 68/139/40 72/144/40
f 71/143/41 72/144/41 70/142/41
f 70/142/42 66/135/42 65/132/42
f 71/143/43 69/141/43 65/133/43
f 68/140/44 66/136/44 70/142/44
o Cube.001
v -0.485111 -0.433786 0.070685
v -0.520005 -1.331127 -0.196643
v -1.850995 -0.348281 -0.038038
v -1.885889 -1.245622 -0.305366
v -0.494415 -0.461704 0.165613
v -0.529309 -1.359045 -0.101715
v -1.860299 -0.376200 0.056891
v -1.895193 -1.273541 -0.210437
vn 0.0936 0.2809 -0.9552
vn -0.9949 0.0623 -0.0792
vn -0.0936 -0.2809 0.9552
vn 0.9949 -0.0623 0.0792
vn 0.0372 0.9577 0.2853
vn -0.0372 -0.9577 -0.2853
vt 0.684626 0.000000
vt 0.684626 1.000000
vt 0.537973 0.750000
vt 0.831279 0.000000
vt 0.831279 1.000000
vt 0.977933 0.750000
vt 0.537973 0.500000
vt 0.684626 0.250000
vt 0.831279 0.250000
vt 0.977933 0.500000
vt 0.684626 0.750000
vt 0.831279 0.750000
vt 0.684626 0.500000
vt 0.831279 0.500000
s 0
usemtl Material.001
f 74/148/45 75/152/45 73/145/45
f 76/153/46 79/157/46 75/152/46
f 80/158/47 77/155/47 79/157/47
f 78/156/48 73/146/48 77/155/48
f 79/157/49 73/147/49 75/151/49
f 76/154/50 78/156/50 80/158/50
f 74/148/45 76/153/45 75/152/45
f 76/153/46 80/158/46 79/157/46
f 80/158/47 78/156/47 77/155/47
f 78/156/48 74/149/48 73/146/48
f 79/157/49 77/155/49 73/147/49
f 76/154/50 74/150/50 78/156/50
o Cube.002
v -2.343404 0.056704 0.363494
v -2.393787 0.243240 0.698654
v -2.349432 -0.016973 0.403594
v -2.399815 0.169562 0.738753
v -3.135261 0.056704 0.244458
v -3.185643 0.243240 0.579617
v -3.141289 -0.016973 0.284558
v -3.191671 0.169562 0.619717
vn 0.9889 -0.0000 0.1487
vn -0.0717 -0.8761 0.4768
vn -0.9889 -0.0000 -0.1487
vn 0.0717 0.8761 -0.4768
vn 0.1302 -0.4822 -0.8663
vn -0.1302 0.4822 0.8663
vt 0.675709 0.000000
vt 0.675709 1.000000
vt 0.517834 0.750000
vt 0.833583 0.000000
vt 0.833583 1.000000
vt 0.991457 0.750000
vt 0.517834 0.500000
vt 0.675709 0.250000
vt 0.833583 0.250000
vt 0.991457 0.500000
vt 0.675709 0.750000
vt 0.833583 0.750000
vt 0.675709 0.500000
vt 0.833583 0.500000
s 0
usemtl Material.001
f 82/162/51 83/166/51 81/159/51
f 84/167/52 87/171/52 83/166/52
f 88/172/53 85/169/53 87/171/53
f 86/170/54 81/160/54 85/169/54
f 87/171/55 81/161/55 83/165/55
f 84/168/56 86/170/56 88/172/56
f 82/162/51 84/167/51 83/166/51
f 84/167/52 88/172/52 87/171/52
f 88/172/53 86/170/53 85/169/53
f 86/170/54 82/163/54 81/160/54
f 87/171/55 85/169/55 81/161/55
f 84/168/56 82/164/56 86/170/56
