# Blender 3.4.1
# www.blender.org
mtllib object_bush2.mtl
o Cube
v 0.117154 -3.296248 0.021510
v 0.117154 -3.296248 -0.021510
v -0.117154 -3.296248 0.021510
v -0.117154 -3.296248 -0.021510
v 0.717459 -1.301705 0.535725
v 0.717459 -1.301705 0.272268
v -0.717459 -1.301705 0.535725
v -0.717459 -1.301705 0.272268
vn -0.0000 -0.2496 0.9683
vn -0.9576 -0.2882 -0.0000
vn -0.0000 1.0000 -0.0000
vn -0.0000 0.1457 -0.9893
vn -0.0000 -1.0000 -0.0000
vn 0.9576 -0.2882 -0.0000
vt 0.625000 0.500000
vt 0.375000 0.500000
vt 0.625000 0.750000
vt 0.375000 0.750000
vt 0.875000 0.500000
vt 0.625000 0.250000
vt 0.125000 0.500000
vt 0.375000 0.250000
vt 0.875000 0.750000
vt 0.625000 1.000000
vt 0.625000 0.000000
vt 0.375000 0.000000
vt 0.375000 1.000000
vt 0.125000 0.750000
s 0
usemtl Material.002
f 5/5/1 3/3/1 1/1/1
f 3/3/2 8/13/2 4/4/2
f 7/11/3 6/8/3 8/12/3
f 2/2/4 8/14/4 6/7/4
f 1/1/5 4/4/5 2/2/5
f 6/8/6 1/1/6 2/2/6
f 5/5/1 7/9/1 3/3/1
f 3/3/2 7/10/2 8/13/2
f 7/11/3 5/6/3 6/8/3
f 2/2/4 4/4/4 8/14/4
f 1/1/5 3/3/5 4/4/5
f 6/8/6 5/6/6 1/1/6
o Cube.001
v 0.396452 0.006753 0.021510
v 0.396452 0.006753 -0.021510
v -0.396452 0.006753 0.021510
v -0.396452 0.006753 -0.021510
v 0.717459 -1.313136 0.535725
v 0.717459 -1.313136 0.272268
v -0.717459 -1.313136 0.535725
v -0.717459 -1.313136 0.272268
vn -0.0000 0.3630 0.9318
vn -0.9717 0.2363 -0.0000
vn -0.0000 -1.0000 -0.0000
vn -0.0000 -0.2173 -0.9761
vn -0.0000 1.0000 -0.0000
vn 0.9717 0.2363 -0.0000
vt 0.625000 0.500000
vt 0.375000 0.500000
vt 0.625000 0.750000
vt 0.375000 0.750000
vt 0.875000 0.500000
vt 0.625000 0.250000
vt 0.125000 0.500000
vt 0.375000 0.250000
vt 0.875000 0.750000
vt 0.625000 1.000000
vt 0.625000 0.000000
vt 0.375000 0.000000
vt 0.375000 1.000000
vt 0.125000 0.750000
s 0
usemtl Material.002
f 13/19/7 9/15/7 11/17/7
f 11/17/8 12/18/8 16/27/8
f 15/25/9 16/26/9 14/22/9
f 10/16/10 14/21/10 16/28/10
f 9/15/11 10/16/11 12/18/11
f 14/22/12 10/16/12 9/15/12
f 13/19/7 11/17/7 15/23/7
f 11/17/8 16/27/8 15/24/8
f 15/25/9 14/22/9 13/20/9
f 10/16/10 16/28/10 12/18/10
f 9/15/11 12/18/11 11/17/11
f 14/22/12 9/15/12 13/20/12
o Cube.002
v 0.238399 -0.316837 0.021510
v 0.238399 -0.316837 -0.021510
v -0.227470 0.324773 0.021510
v -0.227470 0.324773 -0.021510
v -0.641035 -1.352091 0.535725
v -0.641035 -1.352091 0.272268
v -1.484118 -0.190969 0.535725
v -1.484118 -0.190969 0.272268
vn 0.2937 0.2133 0.9318
vn -0.3797 0.9251 -0.0000
vn -0.8092 -0.5875 -0.0000
vn -0.1758 -0.1277 -0.9761
vn 0.8092 0.5875 -0.0000
vn 0.7621 -0.6474 -0.0000
vt 0.625000 0.500000
vt 0.375000 0.500000
vt 0.625000 0.750000
vt 0.375000 0.750000
vt 0.875000 0.500000
vt 0.625000 0.250000
vt 0.125000 0.500000
vt 0.375000 0.250000
vt 0.875000 0.750000
vt 0.625000 1.000000
vt 0.625000 0.000000
vt 0.375000 0.000000
vt 0.375000 1.000000
vt 0.125000 0.750000
s 0
usemtl Material.002
f 21/33/13 17/29/13 19/31/13
f 19/31/14 20/32/14 24/41/14
f 23/39/15 24/40/15 22/36/15
f 18/30/16 22/35/16 24/42/16
f 17/29/17 18/30/17 20/32/17
f 22/36/18 18/30/18 17/29/18
f 21/33/13 19/31/13 23/37/13
f 19/31/14 24/41/14 23/38/14
f 23/39/15 22/36/15 21/34/15
f 18/30/16 24/42/16 20/32/16
f 17/29/17 20/32/17 19/31/17
f 22/36/18 17/29/18 21/34/18
o Cube.003
v -2.598456 -2.031502 0.021510
v -2.598456 -2.031502 -0.021510
v -2.736123 -1.841903 0.021510
v -2.736123 -1.841903 -0.021510
v -0.631785 -1.345374 0.535725
v -0.631785 -1.345374 0.272268
v -1.474868 -0.184253 0.535725
v -1.474868 -0.184253 0.272268
vn -0.2020 -0.1467 0.9683
vn -0.7958 0.6055 -0.0000
vn 0.8092 0.5875 -0.0000
vn 0.1179 0.0856 -0.9893
vn -0.8092 -0.5875 -0.0000
vn 0.3294 -0.9442 -0.0000
vt 0.625000 0.500000
vt 0.375000 0.500000
vt 0.625000 0.750000
vt 0.375000 0.750000
vt 0.875000 0.500000
vt 0.625000 0.250000
vt 0.125000 0.500000
vt 0.375000 0.250000
vt 0.875000 0.750000
vt 0.625000 1.000000
vt 0.625000 0.000000
vt 0.375000 0.000000
vt 0.375000 1.000000
vt 0.125000 0.750000
s 0
usemtl Material.002
f 29/47/19 27/45/19 25/43/19
f 27/45/20 32/55/20 28/46/20
f 31/53/21 30/50/21 32/54/21
f 26/44/22 32/56/22 30/49/22
f 25/43/23 28/46/23 26/44/23
f 30/50/24 25/43/24 26/44/24
f 29/47/19 31/51/19 27/45/19
f 27/45/20 31/52/20 32/55/20
f 31/53/21 29/48/21 30/50/21
f 26/44/22 28/46/22 32/56/22
f 25/43/23 27/45/23 28/46/23
f 30/50/24 29/48/24 25/43/24
o Cube.004
v -2.831988 1.690804 0.021510
v -2.831988 1.690804 -0.021510
v -2.704806 1.887591 0.021510
v -2.704806 1.887591 -0.021510
v -1.482690 0.103995 0.535725
v -1.482690 0.103995 0.272268
v -0.703818 1.309131 0.535725
v -0.703818 1.309131 0.272268
vn -0.2097 0.1355 0.9683
vn 0.2777 0.9607 -0.0000
vn 0.8399 -0.5428 -0.0000
vn 0.1224 -0.0791 -0.9893
vn -0.8399 0.5428 -0.0000
vn -0.7618 -0.6478 -0.0000
vt 0.625000 0.500000
vt 0.375000 0.500000
vt 0.625000 0.750000
vt 0.375000 0.750000
vt 0.875000 0.500000
vt 0.625000 0.250000
vt 0.125000 0.500000
vt 0.375000 0.250000
vt 0.875000 0.750000
vt 0.625000 1.000000
vt 0.625000 0.000000
vt 0.375000 0.000000
vt 0.375000 1.000000
vt 0.125000 0.750000
s 0
usemtl Material.002
f 37/61/25 35/59/25 33/57/25
f 35/59/26 40/69/26 36/60/26
f 39/67/27 38/64/27 40/68/27
f 34/58/28 40/70/28 38/63/28
f 33/57/29 36/60/29 34/58/29
f 38/64/30 33/57/30 34/58/30
f 37/61/25 39/65/25 35/59/25
f 35/59/26 39/66/26 40/69/26
f 39/67/27 37/62/27 38/64/27
f 34/58/28 36/60/28 40/70/28
f 33/57/29 35/59/29 36/60/29
f 38/64/30 37/62/30 33/57/30
o Cube.005
v -0.209522 -0.336631 0.021510
v -0.209522 -0.336631 -0.021510
v 0.220865 0.329300 0.021510
v 0.220865 0.329300 -0.021510
v -1.492290 0.110200 0.535725
v -1.492290 0.110200 0.272268
v -0.713419 1.315336 0.535725
v -0.713419 1.315336 0.272268
vn 0.3049 -0.1970 0.9318
vn 0.7259 0.6878 -0.0000
vn -0.8399 0.5428 -0.0000
vn -0.1825 0.1179 -0.9761
vn 0.8399 -0.5428 -0.0000
vn -0.3289 -0.9443 -0.0000
vt 0.625000 0.500000
vt 0.375000 0.500000
vt 0.625000 0.750000
vt 0.375000 0.750000
vt 0.875000 0.500000
vt 0.625000 0.250000
vt 0.125000 0.500000
vt 0.375000 0.250000
vt 0.875000 0.750000
vt 0.625000 1.000000
vt 0.625000 0.000000
vt 0.375000 0.000000
vt 0.375000 1.000000
vt 0.125000 0.750000
s 0
usemtl Material.002
f 45/75/31 41/71/31 43/73/31
f 43/73/32 44/74/32 48/83/32
f 47/81/33 48/82/33 46/78/33
f 42/72/34 46/77/34 48/84/34
f 41/71/35 42/72/35 44/74/35
f 46/78/36 42/72/36 41/71/36
f 45/75/31 43/73/31 47/79/31
f 43/73/32 48/83/32 47/80/32
f 47/81/33 46/78/33 45/76/33
f 42/72/34 48/84/34 44/74/34
f 41/71/35 44/74/35 43/73/35
f 46/78/36 41/71/36 45/76/36
o Cube.006
v -0.395921 0.021595 0.021510
v -0.395921 0.021595 -0.021510
v 0.394956 -0.035067 0.021510
v 0.394956 -0.035067 -0.021510
v -0.621788 1.361049 0.535725
v -0.621788 1.361049 0.272268
v 0.809463 1.258509 0.535725
v 0.809463 1.258509 0.272268
vn -0.0259 -0.3621 0.9318
vn 0.9523 -0.3052 -0.0000
vn 0.0715 0.9974 -0.0000
vn 0.0155 0.2167 -0.9761
vn -0.0715 -0.9974 -0.0000
vn -0.9861 -0.1663 -0.0000
vt 0.625000 0.500000
vt 0.375000 0.500000
vt 0.625000 0.750000
vt 0.375000 0.750000
vt 0.875000 0.500000
vt 0.625000 0.250000
vt 0.125000 0.500000
vt 0.375000 0.250000
vt 0.875000 0.750000
vt 0.625000 1.000000
vt 0.625000 0.000000
vt 0.375000 0.000000
vt 0.375000 1.000000
vt 0.125000 0.750000
s 0
usemtl Material.002
f 53/89/37 49/85/37 51/87/37
f 51/87/38 52/88/38 56/97/38
f 55/95/39 56/96/39 54/92/39
f 50/86/40 54/91/40 56/98/40
f 49/85/41 50/86/41 52/88/41
f 54/92/42 50/86/42 49/85/42
f 53/89/37 51/87/37 55/93/37
f 51/87/38 56/97/38 55/94/38
f 55/95/39 54/92/39 53/90/39
f 50/86/40 56/98/40 52/88/40
f 49/85/41 52/88/41 51/87/41
f 54/92/42 49/85/42 53/90/42
o Cube.007
v 0.118698 3.296193 0.021510
v 0.118698 3.296193 -0.021510
v 0.352406 3.279449 0.021510
v 0.352406 3.279449 -0.021510
v -0.622605 1.349647 0.535725
v -0.622605 1.349647 0.272268
v 0.808646 1.247107 0.535725
v 0.808646 1.247107 0.272268
vn 0.0178 0.2490 0.9683
vn 0.9757 0.2190 -0.0000
vn -0.0715 -0.9974 -0.0000
vn -0.0104 -0.1453 -0.9893
vn 0.0715 0.9974 -0.0000
vn -0.9345 0.3559 -0.0000
vt 0.625000 0.500000
vt 0.375000 0.500000
vt 0.625000 0.750000
vt 0.375000 0.750000
vt 0.875000 0.500000
vt 0.625000 0.250000
vt 0.125000 0.500000
vt 0.375000 0.250000
vt 0.875000 0.750000
vt 0.625000 1.000000
vt 0.625000 0.000000
vt 0.375000 0.000000
vt 0.375000 1.000000
vt 0.125000 0.750000
s 0
usemtl Material.002
f 61/103/43 59/101/43 57/99/43
f 59/101/44 64/111/44 60/102/44
f 63/109/45 62/106/45 64/110/45
f 58/100/46 64/112/46 62/105/46
f 57/99/47 60/102/47 58/100/47
f 62/106/48 57/99/48 58/100/48
f 61/103/43 63/107/43 59/101/43
f 59/101/44 63/108/44 64/111/44
f 63/109/45 61/104/45 62/106/45
f 58/100/46 60/102/46 64/112/46
f 57/99/47 59/101/47 60/102/47
f 62/106/48 61/104/48 57/99/48
o Cube.008
v 2.802045 1.739977 0.021510
v 2.802045 1.739977 -0.021510
v 2.918502 1.536659 0.021510
v 2.918502 1.536659 -0.021510
v 0.772941 1.269546 0.535725
v 0.772941 1.269546 0.272268
v 1.486132 0.024415 0.535725
v 1.486132 0.024415 0.272268
vn 0.2166 0.1241 0.9683
vn 0.7260 -0.6877 -0.0000
vn -0.8677 -0.4970 -0.0000
vn -0.1264 -0.0724 -0.9893
vn 0.8677 0.4970 -0.0000
vn -0.2259 0.9742 -0.0000
vt 0.625000 0.500000
vt 0.375000 0.500000
vt 0.625000 0.750000
vt 0.375000 0.750000
vt 0.875000 0.500000
vt 0.625000 0.250000
vt 0.125000 0.500000
vt 0.375000 0.250000
vt 0.875000 0.750000
vt 0.625000 1.000000
vt 0.625000 0.000000
vt 0.375000 0.000000
vt 0.375000 1.000000
vt 0.125000 0.750000
s 0
usemtl Material.002
f 69/117/49 67/115/49 65/113/49
f 67/115/50 72/125/50 68/116/50
f 71/123/51 70/120/51 72/124/51
f 66/114/52 72/126/52 70/119/52
f 65/113/53 68/116/53 66/114/53
f 70/120/54 65/113/54 66/114/54
f 69/117/49 71/121/49 67/115/49
f 67/115/50 71/122/50 72/125/50
f 71/123/51 69/118/51 70/120/51
f 66/114/52 68/116/52 72/126/52
f 65/113/53 67/115/53 68/116/53
f 70/120/54 69/118/54 65/113/54
o Cube.009
v -0.202907 0.340660 0.021510
v -0.202907 0.340660 -0.021510
v 0.191186 -0.347372 0.021510
v 0.191186 -0.347372 -0.021510
v 0.782861 1.275227 0.535725
v 0.782861 1.275227 0.272268
v 1.496051 0.030096 0.535725
v 1.496051 0.030096 0.272268
vn -0.3150 -0.1804 0.9318
vn 0.2779 -0.9606 -0.0000
vn 0.8677 0.4970 -0.0000
vn 0.1885 0.1080 -0.9761
vn -0.8677 -0.4970 -0.0000
vn -0.6880 0.7257 -0.0000
vt 0.625000 0.500000
vt 0.375000 0.500000
vt 0.625000 0.750000
vt 0.375000 0.750000
vt 0.875000 0.500000
vt 0.625000 0.250000
vt 0.125000 0.500000
vt 0.375000 0.250000
vt 0.875000 0.750000
vt 0.625000 1.000000
vt 0.625000 0.000000
vt 0.375000 0.000000
vt 0.375000 1.000000
vt 0.125000 0.750000
s 0
usemtl Material.002
f 77/131/55 73/127/55 75/129/55
f 75/129/56 76/130/56 80/139/56
f 79/137/57 80/138/57 78/134/57
f 74/128/58 78/133/58 80/140/58
f 73/127/59 74/128/59 76/130/59
f 78/134/60 74/128/60 73/127/60
f 77/131/55 75/129/55 79/135/55
f 75/129/56 80/139/56 79/136/56
f 79/137/57 78/134/57 77/132/57
f 74/128/58 80/140/58 76/130/58
f 73/127/59 76/130/59 75/129/59
f 78/134/60 73/127/60 77/132/60
o Cube.010
v 0.188391 0.348897 0.021510
v 0.188391 0.348897 -0.021510
v -0.200164 -0.342277 0.021510
v -0.200164 -0.342277 -0.021510
v 1.496245 -0.018080 0.535725
v 1.496245 -0.018080 0.272268
v 0.793077 -1.268898 0.535725
v 0.793077 -1.268898 0.272268
vn -0.3164 0.1779 0.9318
vn -0.6822 -0.7312 -0.0000
vn 0.8717 -0.4900 -0.0000
vn 0.1894 -0.1065 -0.9761
vn -0.8717 0.4900 -0.0000
vn 0.2702 0.9628 -0.0000
vt 0.625000 0.500000
vt 0.375000 0.500000
vt 0.625000 0.750000
vt 0.375000 0.750000
vt 0.875000 0.500000
vt 0.625000 0.250000
vt 0.125000 0.500000
vt 0.375000 0.250000
vt 0.875000 0.750000
vt 0.625000 1.000000
vt 0.625000 0.000000
vt 0.375000 0.000000
vt 0.375000 1.000000
vt 0.125000 0.750000
s 0
usemtl Material.002
f 85/145/61 81/141/61 83/143/61
f 83/143/62 84/144/62 88/153/62
f 87/151/63 88/152/63 86/148/63
f 82/142/64 86/147/64 88/154/64
f 81/141/65 82/142/65 84/144/65
f 86/148/66 82/142/66 81/141/66
f 85/145/61 83/143/61 87/149/61
f 83/143/62 88/153/62 87/150/62
f 87/151/63 86/148/63 85/146/63
f 82/142/64 88/154/64 84/144/64
f 81/141/65 84/144/65 83/143/65
f 86/148/66 81/141/66 85/146/66
o Cube.011
v 2.930749 -1.513170 0.021510
v 2.930749 -1.513170 -0.021510
v 2.815929 -1.717416 0.021510
v 2.815929 -1.717416 -0.021510
v 1.486281 -0.012478 0.535725
v 1.486281 -0.012478 0.272268
v 0.783112 -1.263296 0.535725
v 0.783112 -1.263296 0.272268
vn 0.2176 -0.1223 0.9683
vn -0.2180 -0.9759 -0.0000
vn -0.8717 0.4900 -0.0000
vn -0.1270 0.0714 -0.9893
vn 0.8717 -0.4900 -0.0000
vn 0.7205 0.6935 -0.0000
vt 0.625000 0.500000
vt 0.375000 0.500000
vt 0.625000 0.750000
vt 0.375000 0.750000
vt 0.875000 0.500000
vt 0.625000 0.250000
vt 0.125000 0.500000
vt 0.375000 0.250000
vt 0.875000 0.750000
vt 0.625000 1.000000
vt 0.625000 0.000000
vt 0.375000 0.000000
vt 0.375000 1.000000
vt 0.125000 0.750000
s 0
usemtl Material.002
f 93/159/67 91/157/67 89/155/67
f 91/157/68 96/167/68 92/158/68
f 95/165/69 94/162/69 96/166/69
f 90/156/70 96/168/70 94/161/70
f 89/155/71 92/158/71 90/156/71
f 94/162/72 89/155/72 90/156/72
f 93/159/67 95/163/67 91/157/67
f 91/157/68 95/164/68 96/167/68
f 95/165/69 93/160/69 94/162/69
f 90/156/70 92/158/70 96/168/70
f 89/155/71 91/157/71 92/158/71
f 94/162/72 93/160/72 89/155/72
