# Blender 3.4.1
# www.blender.org
mtllib object_fir_tree_needles_4.mtl
o Cube
v 5.291159 5.794789 0.634582
v 5.285956 5.811401 0.495868
v 5.446974 5.654045 0.611884
v 5.441772 5.670657 0.473170
v -0.269125 0.051382 0.315718
v -0.286172 0.105823 -0.138881
v 0.241520 -0.409872 0.241331
v 0.224472 -0.355431 -0.213268
vn 0.0506 -0.1041 0.9933
vn 0.7577 -0.6440 -0.1055
vn -0.6740 -0.7360 -0.0629
vn -0.0238 0.1335 -0.9908
vn 0.6740 0.7360 0.0629
vn -0.7172 0.6883 0.1093
vt -0.008333 0.037500
vt 0.625000 0.500000
vt 0.375000 0.500000
vt -0.008333 0.983333
vt 0.625000 0.750000
vt 0.375000 0.750000
vt 0.487500 0.037500
vt 0.625000 0.250000
vt 0.125000 0.500000
vt 0.375000 0.250000
vt 0.487500 0.983333
vt 0.625000 1.000000
vt 0.625000 0.000000
vt 0.375000 0.000000
vt 0.375000 1.000000
vt 0.125000 0.750000
s 0
usemtl Material
f 1/1/1 7/11/1 3/4/1
f 3/5/2 8/15/2 4/6/2
f 7/13/3 6/10/3 8/14/3
f 2/3/4 8/16/4 6/9/4
f 1/2/5 4/6/5 2/3/5
f 5/8/6 2/3/6 6/10/6
f 1/1/1 5/7/1 7/11/1
f 3/5/2 7/12/2 8/15/2
f 7/13/3 5/8/3 6/10/3
f 2/3/4 4/6/4 8/16/4
f 1/2/5 3/5/5 4/6/5
f 5/8/6 1/2/6 2/3/6
o Cube.001
v 4.128470 4.007483 0.222647
v 4.133441 4.004231 0.308832
v 2.380449 4.437573 0.339706
v 2.385420 4.434321 0.425890
v 4.507418 5.515694 0.340058
v 4.512389 5.512441 0.426242
v 2.759397 5.945784 0.457116
v 2.764369 5.942531 0.543301
vn -0.2403 -0.9704 -0.0228
vn -0.9690 0.2384 0.0649
vn 0.2403 0.9704 0.0228
vn 0.9690 -0.2384 -0.0649
vn -0.0448 0.0887 -0.9950
vn 0.0448 -0.0887 0.9950
vt 0.375000 0.000000
vt 0.375000 1.000000
vt 0.516667 0.937500
vt 0.625000 0.000000
vt 0.625000 1.000000
vt 0.875000 0.750000
vt 0.516667 0.091667
vt 0.375000 0.250000
vt 0.625000 0.250000
vt 0.875000 0.500000
vt 0.375000 0.750000
vt 0.970833 0.937500
vt 0.625000 0.750000
vt 0.375000 0.500000
vt 0.970833 0.091667
vt 0.625000 0.500000
s 0
usemtl Material
f 10/20/7 11/24/7 9/17/7
f 12/25/8 15/30/8 11/24/8
f 16/32/9 13/27/9 15/30/9
f 13/27/10 10/21/10 9/18/10
f 15/31/11 9/19/11 11/23/11
f 12/26/12 14/29/12 16/32/12
f 10/20/7 12/25/7 11/24/7
f 12/25/8 16/32/8 15/30/8
f 16/32/9 14/29/9 13/27/9
f 13/27/10 14/29/10 10/21/10
f 15/31/11 13/28/11 9/19/11
f 12/26/12 10/22/12 14/29/12
o Cube.002
v 1.556918 -0.883222 -0.087439
v 1.558383 -0.887902 -0.048362
v 1.273842 1.786408 0.242882
v 1.275308 1.781729 0.281958
v 4.833908 -0.525836 -0.167529
v 4.835373 -0.530515 -0.128453
v 4.550832 2.143795 0.162791
v 4.552298 2.139115 0.201867
vn -0.9938 -0.1084 0.0243
vn -0.1047 0.9870 0.1221
vn 0.9938 0.1084 -0.0243
vn 0.1047 -0.9870 -0.1221
vn -0.0372 0.1188 -0.9922
vn 0.0372 -0.1188 0.9922
vt 0.375000 0.000000
vt 0.375000 1.000000
vt 0.512500 0.970833
vt 0.625000 0.000000
vt 0.625000 1.000000
vt 0.875000 0.750000
vt 0.512500 0.058333
vt 0.375000 0.250000
vt 0.625000 0.250000
vt 0.875000 0.500000
vt 0.375000 0.750000
vt 0.987500 0.970833
vt 0.625000 0.750000
vt 0.375000 0.500000
vt 0.987500 0.058333
vt 0.625000 0.500000
s 0
usemtl Material
f 18/36/13 19/40/13 17/33/13
f 20/41/14 23/46/14 19/40/14
f 24/48/15 21/43/15 23/46/15
f 22/45/16 17/34/16 21/43/16
f 23/47/17 17/35/17 19/39/17
f 20/42/18 22/45/18 24/48/18
f 18/36/13 20/41/13 19/40/13
f 20/41/14 24/48/14 23/46/14
f 24/48/15 22/45/15 21/43/15
f 22/45/16 18/37/16 17/34/16
f 23/47/17 21/44/17 17/35/17
f 20/42/18 18/38/18 22/45/18
o Cube.003
v 4.330944 2.049527 -0.087057
v 4.333088 2.042680 -0.029889
v 3.573167 3.841817 0.155998
v 3.575311 3.834970 0.213166
v 6.245778 2.855759 -0.062313
v 6.247922 2.848913 -0.005146
v 5.488001 4.648049 0.180742
v 5.490145 4.641203 0.237910
vn -0.9216 -0.3880 -0.0119
vn -0.3864 0.9140 0.1239
vn 0.9216 0.3880 0.0119
vn 0.3864 -0.9140 -0.1239
vn -0.0372 0.1188 -0.9922
vn 0.0372 -0.1188 0.9922
vt 0.375000 0.000000
vt 0.375000 1.000000
vt 0.522917 0.945833
vt 0.625000 0.000000
vt 0.625000 1.000000
vt 0.875000 0.750000
vt 0.522917 0.075000
vt 0.375000 0.250000
vt 0.625000 0.250000
vt 0.875000 0.500000
vt 0.375000 0.750000
vt 0.964583 0.945833
vt 0.625000 0.750000
vt 0.375000 0.500000
vt 0.964583 0.075000
vt 0.625000 0.500000
s 0
usemtl Material
f 26/52/19 27/56/19 25/49/19
f 28/57/20 31/62/20 27/56/20
f 32/64/21 29/59/21 31/62/21
f 30/61/22 25/50/22 29/59/22
f 31/63/23 25/51/23 27/55/23
f 28/58/24 30/61/24 32/64/24
f 26/52/19 28/57/19 27/56/19
f 28/57/20 32/64/20 31/62/20
f 32/64/21 30/61/21 29/59/21
f 30/61/22 26/53/22 25/50/22
f 31/63/23 29/60/23 25/51/23
f 28/58/24 26/54/24 30/61/24
o Cube.004
v 1.531204 0.964348 0.032568
v 1.533129 0.958199 0.083913
v -0.631679 1.901451 0.225902
v -0.629754 1.895303 0.277247
v 2.580002 3.334580 0.277088
v 2.581927 3.328431 0.328432
v 0.417119 4.271684 0.470421
v 0.419044 4.265534 0.521766
vn -0.4029 -0.9104 -0.0939
vn -0.9145 0.3962 0.0817
vn 0.4029 0.9104 0.0939
vn 0.9145 -0.3962 -0.0817
vn -0.0372 0.1188 -0.9922
vn 0.0372 -0.1188 0.9922
vt 0.375000 0.000000
vt 0.375000 1.000000
vt 0.520833 0.954167
vt 0.625000 0.000000
vt 0.625000 1.000000
vt 0.875000 0.750000
vt 0.520833 0.091667
vt 0.375000 0.250000
vt 0.625000 0.250000
vt 0.875000 0.500000
vt 0.375000 0.750000
vt 0.960417 0.954167
vt 0.625000 0.750000
vt 0.375000 0.500000
vt 0.960417 0.091667
vt 0.625000 0.500000
s 0
usemtl Material
f 34/68/25 35/72/25 33/65/25
f 36/73/26 39/78/26 35/72/26
f 40/80/27 37/75/27 39/78/27
f 38/77/28 33/66/28 37/75/28
f 39/79/29 33/67/29 35/71/29
f 36/74/30 38/77/30 40/80/30
f 34/68/25 36/73/25 35/72/25
f 36/73/26 40/80/26 39/78/26
f 40/80/27 38/77/27 37/75/27
f 38/77/28 34/69/28 33/66/28
f 39/79/29 37/76/29 33/67/29
f 36/74/30 34/70/30 38/77/30
