# Blender 3.4.1
# www.blender.org
mtllib player.mtl
o Cube
v 1.000000 -0.429089 4.416695
v 1.000000 -0.429089 2.223463
v -1.000000 -0.429089 4.416695
v -1.000000 -0.429089 2.223463
v 1.000000 0.429089 4.416695
v 1.000000 0.429089 2.223463
v -1.000000 0.429089 4.416695
v -1.000000 0.429089 2.223463
vn -0.0000 -0.0000 1.0000
vn -1.0000 -0.0000 -0.0000
vn -0.0000 1.0000 -0.0000
vn -0.0000 -0.0000 -1.0000
vn -0.0000 -1.0000 -0.0000
vn 1.0000 -0.0000 -0.0000
vt 0.007748 0.037008
vt 0.188331 0.063005
vt 0.191622 0.949764
vt 0.012678 0.063005
vt 0.192336 0.052828
vt 0.013355 0.949764
vt 0.007748 0.948425
vt 0.191622 0.035670
vt 0.188331 0.962113
vt 0.010709 0.035670
vt 0.192336 0.945834
vt 0.012678 0.962113
vt 0.195274 0.037008
vt 0.188976 0.957716
vt 0.191622 0.038347
vt 0.009304 0.052828
vt 0.013355 0.038347
vt 0.016001 0.957716
vt 0.195274 0.948425
vt 0.191622 0.966929
vt 0.188976 0.000000
vt 0.016001 0.000000
vt 0.010709 0.966929
vt 0.009304 0.945834
s 0
usemtl Material
f 5/13/1 3/7/1 1/1/1
f 3/8/2 8/23/2 4/10/2
f 7/21/3 6/18/3 8/22/3
f 2/5/4 8/24/4 6/16/4
f 1/2/5 4/12/5 2/4/5
f 5/15/6 2/6/6 6/17/6
f 5/13/1 7/19/1 3/7/1
f 3/8/2 7/20/2 8/23/2
f 7/21/3 5/14/3 6/18/3
f 2/5/4 4/11/4 8/24/4
f 1/2/5 3/9/5 4/12/5
f 5/15/6 1/3/6 2/6/6
o Cube.001
v -0.993382 0.320039 0.344442
v -0.993382 0.320039 2.250003
v -0.603183 0.320039 0.344442
v -0.603183 0.320039 2.250003
v -0.993382 -0.339583 0.344442
v -0.993382 -0.339583 2.250003
v -0.603183 -0.339583 0.344442
v -0.603183 -0.339583 2.250003
vn -0.0000 1.0000 -0.0000
vn 1.0000 -0.0000 -0.0000
vn -0.0000 -1.0000 -0.0000
vn -1.0000 -0.0000 -0.0000
vn -0.0000 -0.0000 -1.0000
vn -0.0000 -0.0000 1.0000
vt 0.267953 0.000000
vt 0.267953 1.000000
vt 0.208858 0.750000
vt 0.327047 0.000000
vt 0.327047 1.000000
vt 0.386142 0.750000
vt 0.208858 0.500000
vt 0.267953 0.250000
vt 0.327047 0.250000
vt 0.386142 0.500000
vt 0.267953 0.750000
vt 0.327047 0.750000
vt 0.267953 0.500000
vt 0.327047 0.500000
s 0
usemtl Material
f 10/28/7 11/32/7 9/25/7
f 12/33/8 15/37/8 11/32/8
f 16/38/9 13/35/9 15/37/9
f 14/36/10 9/26/10 13/35/10
f 15/37/11 9/27/11 11/31/11
f 12/34/12 14/36/12 16/38/12
f 10/28/7 12/33/7 11/32/7
f 12/33/8 16/38/8 15/37/8
f 16/38/9 14/36/9 13/35/9
f 14/36/10 10/29/10 9/26/10
f 15/37/11 13/35/11 9/27/11
f 12/34/12 10/30/12 14/36/12
o Cube.002
v 0.570300 0.320039 0.344442
v 0.570300 0.320039 2.250003
v 0.960499 0.320039 0.344442
v 0.960499 0.320039 2.250003
v 0.570300 -0.339583 0.344442
v 0.570300 -0.339583 2.250003
v 0.960499 -0.339583 0.344442
v 0.960499 -0.339583 2.250003
vn -0.0000 1.0000 -0.0000
vn 1.0000 -0.0000 -0.0000
vn -0.0000 -1.0000 -0.0000
vn -1.0000 -0.0000 -0.0000
vn -0.0000 -0.0000 -1.0000
vn -0.0000 -0.0000 1.0000
vt 0.271419 0.000000
vt 0.271419 1.000000
vt 0.211107 0.750000
vt 0.331731 0.000000
vt 0.331731 1.000000
vt 0.392043 0.750000
vt 0.211107 0.500000
vt 0.271419 0.250000
vt 0.331731 0.250000
vt 0.392043 0.500000
vt 0.271419 0.750000
vt 0.331731 0.750000
vt 0.271419 0.500000
vt 0.331731 0.500000
s 0
usemtl Material
f 18/42/13 19/46/13 17/39/13
f 20/47/14 23/51/14 19/46/14
f 24/52/15 21/49/15 23/51/15
f 22/50/16 17/40/16 21/49/16
f 23/51/17 17/41/17 19/45/17
f 20/48/18 22/50/18 24/52/18
f 18/42/13 20/47/13 19/46/13
f 20/47/14 24/52/14 23/51/14
f 24/52/15 22/50/15 21/49/15
f 22/50/16 18/43/16 17/40/16
f 23/51/17 21/49/17 17/41/17
f 20/48/18 18/44/18 22/50/18
o Cube.003
v -1.081509 0.263135 1.898725
v -1.081509 0.263135 2.316323
v 0.946242 0.263135 1.898725
v 0.946242 0.263135 2.316323
v -1.081509 -0.353350 1.898725
v -1.081509 -0.353350 2.316323
v 0.946242 -0.353350 1.898725
v 0.946242 -0.353350 2.316323
vn -0.0000 1.0000 -0.0000
vn 1.0000 -0.0000 -0.0000
vn -0.0000 -1.0000 -0.0000
vn -1.0000 -0.0000 -0.0000
vn -0.0000 -0.0000 -1.0000
vn -0.0000 -0.0000 1.0000
vt 0.269458 0.000000
vt 0.269458 1.000000
vt 0.207869 0.750000
vt 0.331046 0.000000
vt 0.331046 1.000000
vt 0.392635 0.750000
vt 0.207869 0.500000
vt 0.269458 0.250000
vt 0.331046 0.250000
vt 0.392635 0.500000
vt 0.269458 0.750000
vt 0.331046 0.750000
vt 0.269458 0.500000
vt 0.331046 0.500000
s 0
usemtl Material
f 26/56/19 27/60/19 25/53/19
f 28/61/20 31/65/20 27/60/20
f 32/66/21 29/63/21 31/65/21
f 30/64/22 25/54/22 29/63/22
f 31/65/23 25/55/23 27/59/23
f 28/62/24 30/64/24 32/66/24
f 26/56/19 28/61/19 27/60/19
f 28/61/20 32/66/20 31/65/20
f 32/66/21 30/64/21 29/63/21
f 30/64/22 26/57/22 25/54/22
f 31/65/23 29/63/23 25/55/23
f 28/62/24 26/58/24 30/64/24
o Cube.004
v -1.070344 0.273856 0.000000
v -1.070344 0.273856 0.408385
v -0.489738 0.273856 0.000000
v -0.489738 0.273856 0.408385
v -1.070344 -0.783198 0.000000
v -1.070344 -0.783198 0.408385
v -0.489738 -0.783198 0.000000
v -0.489738 -0.783198 0.408385
vn -0.0000 1.0000 -0.0000
vn 1.0000 -0.0000 -0.0000
vn -0.0000 -1.0000 -0.0000
vn -1.0000 -0.0000 -0.0000
vn -0.0000 -0.0000 -1.0000
vn -0.0000 -0.0000 1.0000
vt 0.469891 0.000000
vt 0.469891 1.000000
vt 0.409673 0.750000
vt 0.530109 0.000000
vt 0.530109 1.000000
vt 0.590327 0.750000
vt 0.409673 0.500000
vt 0.469891 0.250000
vt 0.530109 0.250000
vt 0.590327 0.500000
vt 0.469891 0.750000
vt 0.530109 0.750000
vt 0.469891 0.500000
vt 0.530109 0.500000
s 0
usemtl Material
f 34/70/25 35/74/25 33/67/25
f 36/75/26 39/79/26 35/74/26
f 40/80/27 37/77/27 39/79/27
f 38/78/28 33/68/28 37/77/28
f 39/79/29 33/69/29 35/73/29
f 36/76/30 38/78/30 40/80/30
f 34/70/25 36/75/25 35/74/25
f 36/75/26 40/80/26 39/79/26
f 40/80/27 38/78/27 37/77/27
f 38/78/28 34/71/28 33/68/28
f 39/79/29 37/77/29 33/69/29
f 36/76/30 34/72/30 38/78/30
o Cube.005
v 0.522481 0.273856 0.000000
v 0.522481 0.273856 0.408385
v 1.103087 0.273856 0.000000
v 1.103087 0.273856 0.408385
v 0.522481 -0.783198 0.000000
v 0.522481 -0.783198 0.408385
v 1.103087 -0.783198 0.000000
v 1.103087 -0.783198 0.408385
vn -0.0000 1.0000 -0.0000
vn 1.0000 -0.0000 -0.0000
vn -0.0000 -1.0000 -0.0000
vn -1.0000 -0.0000 -0.0000
vn -0.0000 -0.0000 -1.0000
vn -0.0000 -0.0000 1.0000
vt 0.470078 0.000000
vt 0.470078 1.000000
vt 0.410235 0.750000
vt 0.529922 0.000000
vt 0.529922 1.000000
vt 0.589765 0.750000
vt 0.410235 0.500000
vt 0.470078 0.250000
vt 0.529922 0.250000
vt 0.589765 0.500000
vt 0.470078 0.750000
vt 0.529922 0.750000
vt 0.470078 0.500000
vt 0.529922 0.500000
s 0
usemtl Material
f 42/84/31 43/88/31 41/81/31
f 44/89/32 47/93/32 43/88/32
f 48/94/33 45/91/33 47/93/33
f 46/92/34 41/82/34 45/91/34
f 47/93/35 41/83/35 43/87/35
f 44/90/36 46/92/36 48/94/36
f 42/84/31 44/89/31 43/88/31
f 44/89/32 48/94/32 47/93/32
f 48/94/33 46/92/33 45/91/33
f 46/92/34 42/85/34 41/82/34
f 47/93/35 45/91/35 41/83/35
f 44/90/36 42/86/36 46/92/36
o Cube.006
v -0.655109 -0.320785 4.128388
v -1.865933 -0.320785 2.688653
v -0.655109 0.220798 4.128388
v -1.865933 0.220798 2.688653
v -1.002430 -0.320785 4.420487
v -2.213255 -0.320785 2.980752
v -1.002430 0.220798 4.420487
v -2.213254 0.220798 2.980752
vn 0.7653 -0.0000 -0.6436
vn -0.0000 1.0000 -0.0000
vn -0.7653 -0.0000 0.6436
vn -0.0000 -1.0000 -0.0000
vn 0.6436 -0.0000 0.7653
vn -0.6436 -0.0000 -0.7653
vt 0.008038 0.000000
vt 0.008038 1.000000
vt 0.006981 0.950928
vt 0.192970 0.000000
vt 0.192970 1.000000
vt 0.192705 0.955039
vt 0.008038 0.044961
vt 0.006981 0.074191
vt 0.008038 0.937874
vt 0.192970 0.937874
vt 0.192970 0.044961
vt 0.192705 0.043622
vt 0.008038 0.042284
vt 0.008038 0.935197
vt 0.191912 0.950928
vt 0.192970 0.935197
vt 0.192970 0.042284
vt 0.007773 0.955039
vt 0.008038 0.050236
vt 0.008038 0.949764
vt 0.191912 0.074191
vt 0.007773 0.043622
vt 0.192970 0.949764
vt 0.192970 0.050236
s 0
usemtl Material
f 50/98/37 51/103/37 49/95/37
f 52/105/38 55/114/38 51/101/38
f 56/118/39 53/108/39 55/113/39
f 54/111/40 49/96/40 53/107/40
f 55/115/41 49/97/41 51/102/41
f 52/106/42 54/112/42 56/116/42
f 50/98/37 52/104/37 51/103/37
f 52/105/38 56/117/38 55/114/38
f 56/118/39 54/110/39 53/108/39
f 54/111/40 50/99/40 49/96/40
f 55/115/41 53/109/41 49/97/41
f 52/106/42 50/100/42 54/112/42
o Cube.007
v 1.863333 -0.320785 2.687352
v 0.656865 -0.320785 4.130740
v 1.863333 0.220798 2.687352
v 0.656865 0.220797 4.130740
v 2.211535 -0.320785 2.978400
v 1.005067 -0.320785 4.421788
v 2.211535 0.220798 2.978400
v 1.005067 0.220797 4.421788
vn -0.7673 -0.0000 -0.6413
vn -0.0000 1.0000 -0.0000
vn 0.7673 -0.0000 0.6413
vn -0.0000 -1.0000 -0.0000
vn 0.6413 -0.0000 -0.7673
vn -0.6413 -0.0000 0.7673
vt 0.006530 0.033333
vt 0.008196 0.954167
vt 0.007976 0.950476
vt 0.194304 0.033333
vt 0.194304 0.954167
vt 0.192710 0.941667
vt 0.007363 0.029167
vt 0.007976 0.026542
vt 0.006530 0.970833
vt 0.194304 0.970833
vt 0.194304 0.029167
vt 0.192710 0.050000
vt 0.008196 0.054167
vt 0.009030 0.970833
vt 0.193842 0.950476
vt 0.190970 0.970833
vt 0.194304 0.054167
vt 0.008260 0.941667
vt 0.009030 0.037500
vt 0.007363 0.970833
vt 0.193842 0.026542
vt 0.008260 0.050000
vt 0.194304 0.970833
vt 0.190970 0.037500
s 0
usemtl Material
f 58/122/43 59/127/43 57/119/43
f 60/129/44 63/138/44 59/125/44
f 64/142/45 61/132/45 63/137/45
f 62/135/46 57/120/46 61/131/46
f 63/139/47 57/121/47 59/126/47
f 60/130/48 62/136/48 64/140/48
f 58/122/43 60/128/43 59/127/43
f 60/129/44 64/141/44 63/138/44
f 64/142/45 62/134/45 61/132/45
f 62/135/46 58/123/46 57/120/46
f 63/139/47 61/133/47 57/121/47
f 60/130/48 58/124/48 62/136/48
o Cube.008
v -0.282318 0.208521 4.351317
v -0.282318 0.208521 4.828467
v 0.282318 0.208521 4.351317
v 0.282318 0.208521 4.828467
v -0.282318 -0.277026 4.351317
v -0.282318 -0.277026 4.828467
v 0.282318 -0.277026 4.351317
v 0.282318 -0.277026 4.828467
vn -0.0000 1.0000 -0.0000
vn 1.0000 -0.0000 -0.0000
vn -0.0000 -1.0000 -0.0000
vn -1.0000 -0.0000 -0.0000
vn -0.0000 -0.0000 -1.0000
vn -0.0000 -0.0000 1.0000
vt 0.605909 0.041667
vt 0.605909 0.966667
vt 0.616059 0.750000
vt 0.790758 0.041667
vt 0.794091 0.966667
vt 0.790607 0.750000
vt 0.607575 0.050000
vt 0.616059 0.500000
vt 0.605909 0.966667
vt 0.790758 0.966667
vt 0.794091 0.050000
vt 0.790607 0.500000
vt 0.605909 0.041667
vt 0.605909 0.966667
vt 0.674242 0.750000
vt 0.794091 0.966667
vt 0.794091 0.041667
vt 0.732425 0.750000
vt 0.605909 0.066667
vt 0.607575 0.966667
vt 0.674242 0.500000
vt 0.732425 0.500000
vt 0.794091 0.966667
vt 0.794091 0.066667
s 0
usemtl Material
f 66/146/49 67/151/49 65/143/49
f 68/153/50 71/162/50 67/149/50
f 72/166/51 69/156/51 71/161/51
f 70/159/52 65/144/52 69/155/52
f 71/163/53 65/145/53 67/150/53
f 68/154/54 70/160/54 72/164/54
f 66/146/49 68/152/49 67/151/49
f 68/153/50 72/165/50 71/162/50
f 72/166/51 70/158/51 69/156/51
f 70/159/52 66/147/52 65/144/52
f 71/163/53 69/157/53 65/145/53
f 68/154/54 66/148/54 70/160/54
o Cube.009
v -0.415796 0.362023 4.791611
v -0.415796 0.362023 5.576361
v 0.415796 0.362023 4.791611
v 0.415796 0.362023 5.576361
v -0.415796 -0.430527 4.791611
v -0.415796 -0.430527 5.576361
v 0.415796 -0.430527 4.791611
v 0.415796 -0.430527 5.576361
vn -0.0000 1.0000 -0.0000
vn 1.0000 -0.0000 -0.0000
vn -0.0000 -1.0000 -0.0000
vn -1.0000 -0.0000 -0.0000
vn -0.0000 -0.0000 -1.0000
vn -0.0000 -0.0000 1.0000
vt 0.610565 0.050000
vt 0.605565 0.958333
vt 0.616694 0.750000
vt 0.792768 0.050000
vt 0.792768 0.958333
vt 0.793305 0.750000
vt 0.607231 0.025000
vt 0.616694 0.500000
vt 0.610565 0.950000
vt 0.792768 0.950000
vt 0.792768 0.025000
vt 0.793305 0.500000
vt 0.605565 0.041667
vt 0.607319 0.970486
vt 0.675565 0.750000
vt 0.792856 0.970486
vt 0.792768 0.041667
vt 0.734435 0.750000
vt 0.607319 0.037153
vt 0.607231 0.958333
vt 0.675565 0.500000
vt 0.734435 0.500000
vt 0.792768 0.958333
vt 0.792856 0.037153
s 0
usemtl Material
f 74/170/55 75/175/55 73/167/55
f 76/177/56 79/186/56 75/173/56
f 80/190/57 77/180/57 79/185/57
f 78/183/58 73/168/58 77/179/58
f 79/187/59 73/169/59 75/174/59
f 76/178/60 78/184/60 80/188/60
f 74/170/55 76/176/55 75/175/55
f 76/177/56 80/189/56 79/186/56
f 80/190/57 78/182/57 77/180/57
f 78/183/58 74/171/58 73/168/58
f 79/187/59 77/181/59 73/169/59
f 76/178/60 74/172/60 78/184/60
o Cube.010
v -0.466076 0.382956 5.323129
v -0.466076 0.403510 5.820919
v 0.466076 0.382956 5.323129
v 0.466076 0.403510 5.820919
v -0.466076 -0.586936 5.624860
v -0.466076 -0.607490 5.938902
v 0.466076 -0.586936 5.624860
v 0.466076 -0.607490 5.938902
vn -0.0000 0.9991 -0.0413
vn 1.0000 -0.0000 -0.0000
vn -0.0000 -0.9979 -0.0653
vn -1.0000 -0.0000 -0.0000
vn -0.0000 -0.2971 -0.9549
vn -0.0000 0.1159 0.9933
vt 0.868623 0.000000
vt 0.868623 1.000000
vt 0.804546 0.750000
vt 0.932700 0.000000
vt 0.932700 1.000000
vt 0.996777 0.750000
vt 0.804546 0.500000
vt 0.868623 0.250000
vt 0.932700 0.250000
vt 0.996777 0.500000
vt 0.868623 0.750000
vt 0.932700 0.750000
vt 0.868623 0.500000
vt 0.932700 0.500000
s 0
usemtl Material
f 82/194/61 83/198/61 81/191/61
f 84/199/62 87/203/62 83/198/62
f 88/204/63 85/201/63 87/203/63
f 85/201/64 82/195/64 81/192/64
f 87/203/65 81/193/65 83/197/65
f 84/200/66 86/202/66 88/204/66
f 82/194/61 84/199/61 83/198/61
f 84/199/62 88/204/62 87/203/62
f 88/204/63 86/202/63 85/201/63
f 85/201/64 86/202/64 82/195/64
f 87/203/65 85/201/65 81/193/65
f 84/200/66 82/196/66 86/202/66
o Cube.011
v -1.870318 -0.281856 2.710871
v -2.073595 -0.281856 2.469165
v -1.870318 0.160973 2.710871
v -2.073595 0.160973 2.469164
v -2.190111 -0.281856 2.979819
v -2.393388 -0.281856 2.738112
v -2.190111 0.160973 2.979819
v -2.393388 0.160973 2.738112
vn 0.7653 -0.0000 -0.6436
vn -0.0000 1.0000 -0.0000
vn -0.7653 -0.0000 0.6436
vn -0.0000 -1.0000 -0.0000
vn 0.6436 -0.0000 0.7653
vn -0.6436 -0.0000 -0.7653
vt 0.673290 0.000000
vt 0.673290 1.000000
vt 0.613203 0.750000
vt 0.733377 0.000000
vt 0.733377 1.000000
vt 0.793464 0.750000
vt 0.613203 0.500000
vt 0.673290 0.250000
vt 0.733377 0.250000
vt 0.793464 0.500000
vt 0.673290 0.750000
vt 0.733377 0.750000
vt 0.673290 0.500000
vt 0.733377 0.500000
s 0
usemtl Material
f 90/208/67 91/212/67 89/205/67
f 92/213/68 95/217/68 91/212/68
f 96/218/69 93/215/69 95/217/69
f 94/216/70 89/206/70 93/215/70
f 95/217/71 89/207/71 91/211/71
f 92/214/72 94/216/72 96/218/72
f 90/208/67 92/213/67 91/212/67
f 92/213/68 96/218/68 95/217/68
f 96/218/69 94/216/69 93/215/69
f 94/216/70 90/209/70 89/206/70
f 95/217/71 93/215/71 89/207/71
f 92/214/72 90/210/72 94/216/72
o Cube.012
v 2.393385 -0.281856 2.738112
v 2.190108 -0.281856 2.979819
v 2.393385 0.160973 2.738112
v 2.190108 0.160973 2.979819
v 2.073592 -0.281856 2.469165
v 1.870315 -0.281856 2.710871
v 2.073592 0.160973 2.469165
v 1.870315 0.160973 2.710871
vn 0.7653 -0.0000 0.6436
vn -0.0000 1.0000 -0.0000
vn -0.7653 -0.0000 -0.6436
vn -0.0000 -1.0000 -0.0000
vn 0.6436 -0.0000 -0.7653
vn -0.6436 -0.0000 0.7653
vt 0.672132 0.000000
vt 0.672132 1.000000
vt 0.613063 0.750000
vt 0.731201 0.000000
vt 0.731201 1.000000
vt 0.790270 0.750000
vt 0.613063 0.500000
vt 0.672132 0.250000
vt 0.731201 0.250000
vt 0.790270 0.500000
vt 0.672132 0.750000
vt 0.731201 0.750000
vt 0.672132 0.500000
vt 0.731201 0.500000
s 0
usemtl Material
f 98/222/73 97/219/73 99/226/73
f 100/227/74 99/226/74 103/231/74
f 104/232/75 103/231/75 101/229/75
f 102/230/76 101/229/76 97/220/76
f 103/231/77 99/225/77 97/221/77
f 100/228/78 104/232/78 102/230/78
f 98/222/73 99/226/73 100/227/73
f 100/227/74 103/231/74 104/232/74
f 104/232/75 101/229/75 102/230/75
f 102/230/76 97/220/76 98/223/76
f 103/231/77 97/221/77 101/229/77
f 100/228/78 102/230/78 98/224/78
o Cube.013
v 0.165650 -0.430528 5.337421
v 0.165650 -0.448997 5.337421
v 0.165650 -0.430528 5.403652
v 0.165650 -0.448997 5.403652
v 0.225788 -0.430528 5.337421
v 0.225788 -0.448997 5.337421
v 0.225788 -0.430528 5.403652
v 0.225788 -0.448997 5.403652
vn -1.0000 -0.0000 -0.0000
vn -0.0000 -0.0000 1.0000
vn 1.0000 -0.0000 -0.0000
vn -0.0000 -0.0000 -1.0000
vn -0.0000 1.0000 -0.0000
vn -0.0000 -1.0000 -0.0000
vt 0.069855 1.000000
vt 0.069855 0.000000
vt 0.008558 0.750000
vt 0.131153 0.000000
vt 0.131153 1.000000
vt 0.192450 0.750000
vt 0.069855 0.250000
vt 0.008558 0.500000
vt 0.131153 0.250000
vt 0.192450 0.500000
vt 0.069855 0.750000
vt 0.131153 0.750000
vt 0.069855 0.500000
vt 0.131153 0.500000
s 0
usemtl Material
f 105/234/79 108/241/79 107/239/79
f 108/241/80 111/245/80 107/239/80
f 112/246/81 109/243/81 111/245/81
f 109/243/82 106/237/82 105/233/82
f 111/245/83 105/235/83 107/240/83
f 108/242/84 110/244/84 112/246/84
f 105/234/79 106/236/79 108/241/79
f 108/241/80 112/246/80 111/245/80
f 112/246/81 110/244/81 109/243/81
f 109/243/82 110/244/82 106/237/82
f 111/245/83 109/243/83 105/235/83
f 108/242/84 106/238/84 110/244/84
o Cube.014
v -0.225788 -0.430528 5.337421
v -0.225788 -0.448997 5.337421
v -0.225788 -0.430528 5.403652
v -0.225788 -0.448997 5.403652
v -0.165650 -0.430528 5.337421
v -0.165650 -0.448997 5.337421
v -0.165650 -0.430528 5.403652
v -0.165650 -0.448997 5.403652
vn -1.0000 -0.0000 -0.0000
vn -0.0000 -0.0000 1.0000
vn 1.0000 -0.0000 -0.0000
vn -0.0000 -0.0000 -1.0000
vn -0.0000 1.0000 -0.0000
vn -0.0000 -1.0000 -0.0000
vt 0.072590 1.000000
vt 0.072590 0.000000
vt 0.011102 0.750000
vt 0.134077 0.000000
vt 0.134077 1.000000
vt 0.195565 0.750000
vt 0.072590 0.250000
vt 0.011102 0.500000
vt 0.134077 0.250000
vt 0.195565 0.500000
vt 0.072590 0.750000
vt 0.134077 0.750000
vt 0.072590 0.500000
vt 0.134077 0.500000
s 0
usemtl Material
f 113/248/85 116/255/85 115/253/85
f 116/255/86 119/259/86 115/253/86
f 120/260/87 117/257/87 119/259/87
f 117/257/88 114/251/88 113/247/88
f 119/259/89 113/249/89 115/254/89
f 116/256/90 118/258/90 120/260/90
f 113/248/85 114/250/85 116/255/85
f 116/255/86 120/260/86 119/259/86
f 120/260/87 118/258/87 117/257/87
f 117/257/88 118/258/88 114/251/88
f 119/259/89 117/257/89 113/249/89
f 116/256/90 114/252/90 118/258/90
